<svg width="93" height="32" viewBox="0 0 93 32" fill="none" xmlns="http://www.w3.org/2000/svg">
<g clip-path="url(#clip0_1_2720)">
<path fill-rule="evenodd" clip-rule="evenodd" d="M81.295 14.8509L75.4247 25.008L70.4162 25.0279L81.295 5.90992L92.1332 25.0279H87.0454L81.295 14.8499V14.8509ZM65.4881 20.6063H71.0976L68.4932 25.0279H61.1818L61.2016 19.6441V6.02746H65.5089L65.4891 20.6063H65.4881ZM50.1036 6.02846C55.4523 6.04838 59.7794 10.2917 59.7596 15.5372C59.7397 20.7637 55.4126 25.008 50.063 25.008C44.7342 24.9881 40.407 20.7447 40.407 15.4983C40.4269 10.2718 44.754 6.02846 50.1036 6.02846ZM50.0838 20.5874C52.9481 20.5874 55.251 18.3272 55.251 15.5372C55.2718 12.7481 52.9481 10.468 50.1036 10.468C47.2582 10.4481 44.9345 12.7282 44.9345 15.5182C44.9147 18.3073 47.2384 20.5874 50.0828 20.5874H50.0838ZM32.4341 14.0281C32.3746 13.2412 32.1733 12.2003 31.8728 11.1992C31.2544 9.13141 30.1794 7.23045 28.7279 5.63799C27.9662 4.81322 27.1053 4.04623 25.822 3.14277C24.8436 2.65787 23.8817 2.14028 22.9379 1.59086C22.317 1.23724 21.5752 0.803943 20.5943 0.490174C19.4313 0.214457 18.2424 0.0632034 17.0477 0.0389434C15.8873 -0.000900321 14.724 0.0987091 13.6023 0.313865C12.4201 0.510096 11.4382 0.823865 10.136 1.13863C7.19042 2.41562 4.90735 4.34107 2.94363 6.89605C-3.90756 16.5034 2.28311 29.9626 13.7223 31.5534C15.6057 31.8094 17.489 31.7107 19.2713 31.2984L20.5338 30.9647C20.5735 30.9447 20.634 30.9248 20.6736 30.9248L22.1167 30.375C22.196 30.3351 22.2565 30.3152 22.3368 30.2764L22.9379 30.0014C24.091 29.4299 25.1735 28.7245 26.1631 27.8997C25.2623 28.7217 24.2826 29.4521 23.2384 30.0801L23.2979 30.12C23.4992 30.0602 23.6787 30.0014 23.8791 29.9626C23.8791 29.9626 23.8791 30.2764 23.8394 30.2176C23.519 30.4537 24.0199 30.2375 24.6606 29.9028C25.3023 29.5691 25.9231 29.1558 26.4835 28.6846C27.3057 27.9973 28.0267 27.2502 29.0482 26.033C30.0896 24.2052 31.3928 22.6134 31.9938 20.4718C32.1941 19.902 32.3736 19.2347 32.4946 18.5464C32.6136 17.8591 32.695 17.1518 32.695 16.4247C32.6751 15.6975 32.5948 14.9505 32.4341 14.0281ZM17.609 30.1787C21.115 29.6279 24.0596 27.6835 26.4636 25.0309C27.1251 24.0677 27.6458 23.1832 28.2865 22.221C29.0879 20.2557 29.0284 18.5075 29.2882 17.2704C29.6095 15.0292 28.8479 13.2222 28.2072 11.2968C27.2253 9.05658 25.9231 7.38713 23.6391 6.09021C17.8689 2.51424 10.016 3.51531 6.27005 8.86035C6.25022 8.86035 6.14906 8.99781 5.94872 9.27273C6.20956 8.17305 6.87107 7.52459 7.5316 6.89506C9.49531 5.28437 11.7794 4.00638 14.3838 3.37885C17.3294 3.06408 20.2531 3.37885 22.8774 4.65584C26.8048 6.89506 29.4092 10.4133 30.0697 14.5769V18.4288C29.2485 24.7361 23.8394 29.5303 17.609 30.1787ZM32.0136 15.835C31.8728 6.60121 22.7177 0.372635 13.8026 1.6307C11.1982 2.27816 8.35279 3.57508 6.32956 5.38299C5.3477 6.03045 4.88752 7.22974 3.90566 8.19197C-0.0217806 13.9494 0.660562 21.3175 5.54804 25.7979C6.17497 26.4204 6.8444 26.9982 7.55143 27.5271C3.46531 25.0698 1.62159 21.3554 0.980906 16.8381C0.980906 15.2264 1.30125 13.6346 1.64143 12.0239C3.92649 4.96961 11.1179 -0.158283 18.9519 1.13863C20.2541 1.4534 21.5563 1.78709 22.8793 2.10185C24.5217 2.74931 26.1443 3.71254 27.4465 4.99053C28.7487 6.26652 29.7305 7.8782 30.7124 9.46896C31.3729 10.747 31.6943 12.3576 32.0146 13.6346C32.0741 14.3618 32.0741 15.1088 32.0146 15.836L32.0136 15.835Z" fill="#1D1E25"/>
<path fill-rule="evenodd" clip-rule="evenodd" d="M23.8799 15.9734C23.8799 19.9428 20.5545 23.1652 16.4475 23.1652C12.3416 23.1652 9.01514 19.9428 9.01514 15.9734C9.01514 12.005 12.3406 8.78259 16.4475 8.78259C20.5545 8.78259 23.8799 12.005 23.8799 15.9744V15.9734Z" fill="white"/>
<path fill-rule="evenodd" clip-rule="evenodd" d="M23.9205 14.7552C23.8204 14.2053 23.6597 13.773 23.5 13.1644C22.8583 11.8277 21.9172 10.7867 20.6745 9.9022C16.027 6.8183 9.63597 9.78466 8.95561 15.051C8.69577 17.1338 9.43663 19.138 10.7587 20.671C10.358 20.2576 9.91764 19.8263 9.61713 19.3342L9.57746 19.3741C9.61713 19.4916 9.7778 19.5703 9.81747 19.6878C9.81747 19.6878 9.6568 19.6878 9.69746 19.6679C9.57746 19.5314 9.67763 19.7476 9.85714 20.0414C10.0178 20.3363 10.2181 20.6122 10.4582 20.8672C10.7993 21.2407 11.1593 21.5744 11.7604 22.0267C12.643 22.4779 13.4236 23.0676 14.4451 23.3425C14.7258 23.4222 15.0461 23.4999 15.3675 23.5587C15.7076 23.6184 16.028 23.6383 16.389 23.6383C16.7292 23.6383 17.0902 23.5985 17.5305 23.5188C17.9846 23.4651 18.4335 23.3735 18.8724 23.2449C19.8529 22.9485 20.756 22.4383 21.5175 21.7507C21.8983 21.3981 22.4398 20.9459 22.8593 20.3562C23.2005 19.6888 23.2402 19.3541 23.4009 19.0593C23.5605 18.7645 23.7609 18.4308 23.9017 17.9785C24.0165 17.442 24.0835 16.8964 24.102 16.3479C24.0822 15.7981 24.0425 15.2672 23.9215 14.7562L23.9205 14.7552ZM19.1521 11.1015C19.8334 11.494 19.9336 11.5527 19.5726 11.2977C20.0943 11.4153 20.4146 11.7101 20.735 12.005C21.5165 12.8895 22.1572 13.9304 22.4775 15.1287C22.658 16.4844 22.5172 17.8401 21.937 19.0394C20.8956 20.8662 19.2324 22.0844 17.2489 22.4181C17.0287 22.4181 16.7887 22.4181 16.5675 22.438C17.1289 22.3394 17.4899 21.9858 18.5114 21.6123C19.6123 21.2198 20.855 19.393 21.457 18.3312C23.2194 15.4425 21.1356 12.771 19.1521 11.1015ZM15.3863 22.457C12.3415 22.1432 9.99698 19.648 9.67664 16.7593C9.95632 18.371 10.9183 19.6081 12.2205 20.7088C12.6817 21.0037 13.3621 21.4161 13.8233 21.7109C14.6048 22.0057 15.065 22.3205 15.8266 22.458H15.3863V22.457ZM23.5794 17.2115C23.4405 17.8211 23.2997 18.4098 23.1589 19.0195C22.8583 19.7665 22.418 20.5325 21.817 21.1411C21.216 21.7507 20.4543 22.2219 19.6936 22.6741C19.0926 22.9879 18.3309 23.1453 17.71 23.3017C17.349 23.3415 16.9285 23.1841 16.5675 23.1652C21.0156 23.0467 24.0604 18.9019 23.3999 14.795C23.0785 13.5967 22.4378 12.5548 21.6563 11.5139C21.336 11.0617 20.7141 10.7867 20.2539 10.3345C17.469 8.58636 13.7836 8.93998 11.68 11.239C11.3851 11.5411 11.1104 11.8625 10.8578 12.2012C11.9805 10.5507 13.7836 9.3922 15.9467 9.05752C16.7083 9.0376 17.4899 9.17605 18.2506 9.31351C21.6166 10.3345 24.1209 13.5967 23.5794 17.2125V17.2115Z" fill="#D7DF23"/>
</g>
<defs>
<clipPath id="clip0_1_2720">
<rect width="92.2353" height="31.875" fill="white"/>
</clipPath>
</defs>
</svg>
