<svg width="80" height="30" viewBox="0 0 80 30" fill="none" xmlns="http://www.w3.org/2000/svg">
<g clip-path="url(#clip0_1_2732)">
<path d="M65.0013 28.725C72.5104 28.725 78.6203 22.5405 78.6203 14.94C78.6203 7.33503 72.5104 1.15503 65.0013 1.15503C57.4907 1.15503 51.3823 7.33503 51.3823 14.94C51.3823 22.5405 57.4907 28.725 65.0013 28.725ZM65.0013 10.0245C67.6773 10.0245 69.8567 12.2295 69.8567 14.9385C69.8567 17.6475 67.6758 19.8495 64.9998 19.8495C62.3222 19.8495 60.1459 17.6475 60.1459 14.937C60.1459 12.225 62.3237 10.0215 64.9998 10.0215L65.0013 10.0245ZM13.619 28.725C21.1281 28.725 27.238 22.5405 27.238 14.94C27.238 7.33503 21.1281 1.15503 13.619 1.15503C6.1114 1.15503 0 7.33503 0 14.94C0 22.5405 6.1114 28.725 13.619 28.725ZM13.619 10.0245C16.2966 10.0245 18.4744 12.2295 18.4744 14.9385C18.4744 17.6475 16.2966 19.8495 13.619 19.8495C10.9429 19.8495 8.76658 17.6475 8.76658 14.937C8.76658 12.225 10.9444 10.0215 13.619 10.0215V10.0245ZM39.3027 9.71403L35.1215 1.33503H25.3316L34.4756 19.665V28.2945H44.1312V19.665L53.2752 1.33503H43.4809L39.3042 9.71403H39.3027Z" fill="#EE2E24"/>
</g>
<defs>
<clipPath id="clip0_1_2732">
<rect width="79.0588" height="30" fill="white"/>
</clipPath>
</defs>
</svg>
