<svg viewBox="0 0 176.654 148.5" xmlns="http://www.w3.org/2000/svg" xmlns:xlink="http://www.w3.org/1999/xlink" width="176.653809" height="148.500000" fill="none" customFrame="#000000">
	<g id="Graph">
		<g id="Group 19529">
			<line id="Line 7" x1="28.7016602" x2="171.70166" y1="12.7089844" y2="12.7089844" stroke="rgb(230,233,237)" stroke-linecap="butt" stroke-dasharray="2 2 " stroke-width="1" />
			<line id="Line 9" x1="28.7016602" x2="171.70166" y1="64.7089844" y2="64.7089844" stroke="rgb(230,233,237)" stroke-linecap="butt" stroke-dasharray="2 2 " stroke-width="1" />
			<line id="Line 11" x1="28.7016602" x2="171.70166" y1="119.708984" y2="119.708984" stroke="rgb(230,233,237)" stroke-linecap="butt" stroke-dasharray="2 2 " stroke-width="1" />
		</g>
		<g id="Group 19450">
			<path id="Jan" d="M37.2505 134.786L38.3073 134.786L38.3073 141.024C38.3073 141.581 38.205 142.054 38.0005 142.443C37.7959 142.832 37.5076 143.128 37.1354 143.33C36.7632 143.531 36.3243 143.632 35.8186 143.632C35.3414 143.632 34.9167 143.545 34.5445 143.372C34.1723 143.196 33.8797 142.946 33.6667 142.622C33.4536 142.298 33.3471 141.913 33.3471 141.467L34.3868 141.467C34.3868 141.715 34.4479 141.93 34.5701 142.115C34.6951 142.297 34.8655 142.439 35.0814 142.541C35.2973 142.643 35.5431 142.695 35.8186 142.695C36.1226 142.695 36.3811 142.631 36.5942 142.503C36.8073 142.375 36.9692 142.188 37.08 141.94C37.1936 141.69 37.2505 141.385 37.2505 141.024L37.2505 134.786ZM42.215 143.666C41.8002 143.666 41.4238 143.588 41.0857 143.432C40.7476 143.273 40.4792 143.044 40.2803 142.746C40.0814 142.445 39.982 142.081 39.982 141.655C39.982 141.28 40.0559 140.976 40.2036 140.743C40.3513 140.507 40.5488 140.322 40.7959 140.189C41.0431 140.055 41.3158 139.956 41.6141 139.891C41.9152 139.822 42.2178 139.768 42.5218 139.729C42.9195 139.678 43.2419 139.639 43.4891 139.614C43.7391 139.585 43.9209 139.538 44.0346 139.473C44.151 139.408 44.2093 139.294 44.2093 139.132L44.2093 139.098C44.2093 138.678 44.0942 138.351 43.8641 138.118C43.6368 137.885 43.2917 137.768 42.8286 137.768C42.3485 137.768 41.9721 137.874 41.6993 138.084C41.4266 138.294 41.2348 138.518 41.124 138.757L40.1695 138.416C40.34 138.018 40.5672 137.709 40.8513 137.487C41.1382 137.263 41.4507 137.107 41.7888 137.018C42.1297 136.928 42.465 136.882 42.7945 136.882C43.0047 136.882 43.2462 136.908 43.5189 136.959C43.7945 137.007 44.0601 137.108 44.3158 137.261C44.5743 137.415 44.7888 137.646 44.9593 137.956C45.1297 138.266 45.215 138.68 45.215 139.2L45.215 143.513L44.2093 143.513L44.2093 142.626L44.1581 142.626C44.09 142.768 43.9763 142.92 43.8172 143.082C43.6581 143.244 43.4465 143.382 43.1823 143.496C42.9181 143.609 42.5956 143.666 42.215 143.666ZM42.3684 142.763C42.7661 142.763 43.1013 142.685 43.374 142.528C43.6496 142.372 43.857 142.17 43.9962 141.923C44.1382 141.676 44.2093 141.416 44.2093 141.143L44.2093 140.223C44.1667 140.274 44.0729 140.321 43.928 140.364C43.786 140.403 43.6212 140.439 43.4337 140.47C43.249 140.499 43.0686 140.524 42.8925 140.547C42.7192 140.567 42.5786 140.584 42.4706 140.598C42.2093 140.632 41.965 140.688 41.7377 140.764C41.5132 140.838 41.3314 140.95 41.1922 141.101C41.0559 141.249 40.9877 141.45 40.9877 141.706C40.9877 142.055 41.1169 142.32 41.3755 142.499C41.6368 142.675 41.9678 142.763 42.3684 142.763ZM48.0562 139.575L48.0562 143.513L47.0505 143.513L47.0505 136.967L48.0221 136.967L48.0221 137.99L48.1074 137.99C48.2608 137.658 48.4937 137.391 48.8062 137.189C49.1187 136.984 49.5221 136.882 50.0164 136.882C50.4596 136.882 50.8474 136.973 51.1798 137.155C51.5122 137.334 51.7707 137.607 51.9554 137.973C52.14 138.337 52.2324 138.797 52.2324 139.354L52.2324 143.513L51.2267 143.513L51.2267 139.422C51.2267 138.908 51.0931 138.507 50.8261 138.22C50.5591 137.93 50.1926 137.786 49.7267 137.786C49.4056 137.786 49.1187 137.855 48.8659 137.994C48.6159 138.134 48.4184 138.337 48.2735 138.604C48.1287 138.871 48.0562 139.195 48.0562 139.575Z" fill="rgb(128,141,158)" fill-rule="nonzero" />
			<path id="Jan" d="M0.730273 7.25L0.730273 6.21L2.81027 6.21L2.81027 13.5L1.66027 13.5L1.66027 7.25L0.730273 7.25ZM4.37637 9.76C4.37637 8.60667 4.5697 7.70667 4.95637 7.06C5.3497 6.40667 6.02303 6.08 6.97637 6.08C7.9297 6.08 8.5997 6.40667 8.98637 7.06C9.3797 7.70667 9.57637 8.60667 9.57637 9.76C9.57637 10.9267 9.3797 11.84 8.98637 12.5C8.5997 13.1533 7.9297 13.48 6.97637 13.48C6.02303 13.48 5.3497 13.1533 4.95637 12.5C4.5697 11.84 4.37637 10.9267 4.37637 9.76ZM8.45637 9.76C8.45637 9.22 8.4197 8.76333 8.34637 8.39C8.2797 8.01667 8.1397 7.71333 7.92637 7.48C7.71303 7.24 7.39637 7.12 6.97637 7.12C6.55637 7.12 6.2397 7.24 6.02637 7.48C5.81303 7.71333 5.6697 8.01667 5.59637 8.39C5.5297 8.76333 5.49637 9.22 5.49637 9.76C5.49637 10.32 5.5297 10.79 5.59637 11.17C5.66303 11.55 5.80303 11.8567 6.01637 12.09C6.23637 12.3233 6.55637 12.44 6.97637 12.44C7.39637 12.44 7.71303 12.3233 7.92637 12.09C8.14637 11.8567 8.2897 11.55 8.35637 11.17C8.42303 10.79 8.45637 10.32 8.45637 9.76ZM13.1126 10.75L15.6526 13.5L14.1126 13.5L12.0726 11.13L12.0726 13.5L10.9326 13.5L10.9326 6.1L12.0726 6.1L12.0726 10.4L14.0726 7.99L15.6526 7.99L13.1126 10.75Z" opacity="0.699999988" fill="rgb(29.2852,29.9259,37.1875)" fill-rule="nonzero" />
			<path id="Jan" d="M7.33809 61.19L3.98809 61.19L3.98809 63.18C4.12809 62.9933 4.33475 62.8367 4.60809 62.71C4.88809 62.5833 5.18475 62.52 5.49809 62.52C6.05809 62.52 6.51142 62.64 6.85809 62.88C7.21142 63.12 7.46142 63.4233 7.60809 63.79C7.76142 64.1567 7.83809 64.5433 7.83809 64.95C7.83809 65.4433 7.74142 65.8833 7.54809 66.27C7.36142 66.65 7.07809 66.95 6.69809 67.17C6.32475 67.39 5.86475 67.5 5.31809 67.5C4.59142 67.5 4.00809 67.32 3.56809 66.96C3.12809 66.6 2.86475 66.1233 2.77809 65.53L3.88809 65.53C3.96142 65.8433 4.12475 66.0933 4.37809 66.28C4.63142 66.46 4.94809 66.55 5.32809 66.55C5.80142 66.55 6.15475 66.4067 6.38809 66.12C6.62809 65.8333 6.74809 65.4533 6.74809 64.98C6.74809 64.5 6.62809 64.1333 6.38809 63.88C6.14809 63.62 5.79475 63.49 5.32809 63.49C5.00142 63.49 4.72475 63.5733 4.49809 63.74C4.27809 63.9 4.11809 64.12 4.01809 64.4L2.93809 64.4L2.93809 60.19L7.33809 60.19L7.33809 61.19ZM11.3548 64.75L13.8948 67.5L12.3548 67.5L10.3148 65.13L10.3148 67.5L9.1748 67.5L9.1748 60.1L10.3148 60.1L10.3148 64.4L12.3148 61.99L13.8948 61.99L11.3548 64.75Z" opacity="0.699999988" fill="rgb(29.2852,29.9259,37.1875)" fill-rule="nonzero" />
			<path id="Jan" d="M5.39687 117.76C5.39687 116.607 5.59021 115.707 5.97688 115.06C6.37021 114.407 7.04354 114.08 7.99688 114.08C8.95021 114.08 9.62021 114.407 10.0069 115.06C10.4002 115.707 10.5969 116.607 10.5969 117.76C10.5969 118.927 10.4002 119.84 10.0069 120.5C9.62021 121.153 8.95021 121.48 7.99688 121.48C7.04354 121.48 6.37021 121.153 5.97688 120.5C5.59021 119.84 5.39687 118.927 5.39687 117.76ZM9.47688 117.76C9.47688 117.22 9.44021 116.763 9.36687 116.39C9.30021 116.017 9.16021 115.713 8.94687 115.48C8.73354 115.24 8.41687 115.12 7.99688 115.12C7.57687 115.12 7.26021 115.24 7.04688 115.48C6.83354 115.713 6.69021 116.017 6.61688 116.39C6.55021 116.763 6.51688 117.22 6.51688 117.76C6.51688 118.32 6.55021 118.79 6.61688 119.17C6.68354 119.55 6.82354 119.857 7.03687 120.09C7.25688 120.323 7.57687 120.44 7.99688 120.44C8.41687 120.44 8.73354 120.323 8.94687 120.09C9.16687 119.857 9.31021 119.55 9.37687 119.17C9.44354 118.79 9.47688 118.32 9.47688 117.76Z" opacity="0.699999988" fill="rgb(29.2852,29.9259,37.1875)" fill-rule="nonzero" />
			<path id="Mar" d="M146.619 134.786L147.88 134.786L150.846 142.03L150.948 142.03L153.914 134.786L155.175 134.786L155.175 143.513L154.187 143.513L154.187 136.882L154.102 136.882L151.374 143.513L150.42 143.513L147.692 136.882L147.607 136.882L147.607 143.513L146.619 143.513L146.619 134.786ZM159.084 143.666C158.669 143.666 158.293 143.588 157.955 143.432C157.617 143.273 157.348 143.044 157.149 142.746C156.951 142.445 156.851 142.081 156.851 141.655C156.851 141.28 156.925 140.976 157.073 140.743C157.22 140.507 157.418 140.322 157.665 140.189C157.912 140.055 158.185 139.956 158.483 139.891C158.784 139.822 159.087 139.768 159.391 139.729C159.789 139.678 160.111 139.639 160.358 139.614C160.608 139.585 160.79 139.538 160.904 139.473C161.02 139.408 161.078 139.294 161.078 139.132L161.078 139.098C161.078 138.678 160.963 138.351 160.733 138.118C160.506 137.885 160.161 137.768 159.698 137.768C159.218 137.768 158.841 137.874 158.568 138.084C158.296 138.294 158.104 138.518 157.993 138.757L157.039 138.416C157.209 138.018 157.436 137.709 157.72 137.487C158.007 137.263 158.32 137.107 158.658 137.018C158.999 136.928 159.334 136.882 159.664 136.882C159.874 136.882 160.115 136.908 160.388 136.959C160.664 137.007 160.929 137.108 161.185 137.261C161.443 137.415 161.658 137.646 161.828 137.956C161.999 138.266 162.084 138.68 162.084 139.2L162.084 143.513L161.078 143.513L161.078 142.626L161.027 142.626C160.959 142.768 160.845 142.92 160.686 143.082C160.527 143.244 160.316 143.382 160.051 143.496C159.787 143.609 159.465 143.666 159.084 143.666ZM159.238 142.763C159.635 142.763 159.97 142.685 160.243 142.528C160.519 142.372 160.726 142.17 160.865 141.923C161.007 141.676 161.078 141.416 161.078 141.143L161.078 140.223C161.036 140.274 160.942 140.321 160.797 140.364C160.655 140.403 160.49 140.439 160.303 140.47C160.118 140.499 159.938 140.524 159.762 140.547C159.588 140.567 159.448 140.584 159.34 140.598C159.078 140.632 158.834 140.688 158.607 140.764C158.382 140.838 158.201 140.95 158.061 141.101C157.925 141.249 157.857 141.45 157.857 141.706C157.857 142.055 157.986 142.32 158.245 142.499C158.506 142.675 158.837 142.763 159.238 142.763ZM163.92 143.513L163.92 136.967L164.891 136.967L164.891 137.956L164.959 137.956C165.079 137.632 165.295 137.369 165.607 137.168C165.92 136.966 166.272 136.865 166.664 136.865C166.738 136.865 166.83 136.867 166.941 136.869C167.052 136.872 167.136 136.876 167.192 136.882L167.192 137.905C167.158 137.896 167.08 137.884 166.958 137.867C166.839 137.847 166.712 137.837 166.579 137.837C166.261 137.837 165.977 137.903 165.727 138.037C165.479 138.168 165.283 138.349 165.138 138.582C164.996 138.813 164.925 139.075 164.925 139.371L164.925 143.513L163.92 143.513Z" fill="rgb(128,141,158)" fill-rule="nonzero" />
			<path id="Feb" d="M90.6191 143.513L90.6191 134.786L95.8521 134.786L95.8521 135.723L91.6759 135.723L91.6759 138.672L95.46 138.672L95.46 139.609L91.6759 139.609L91.6759 143.513L90.6191 143.513ZM99.7896 143.649C99.1589 143.649 98.6149 143.51 98.1575 143.232C97.7029 142.95 97.3521 142.558 97.1049 142.055C96.8606 141.55 96.7384 140.962 96.7384 140.291C96.7384 139.621 96.8606 139.03 97.1049 138.518C97.3521 138.004 97.6958 137.604 98.1362 137.317C98.5793 137.027 99.0964 136.882 99.6873 136.882C100.028 136.882 100.365 136.939 100.697 137.053C101.03 137.166 101.332 137.351 101.605 137.607C101.878 137.859 102.095 138.195 102.257 138.612C102.419 139.03 102.5 139.544 102.5 140.155L102.5 140.581L97.4543 140.581L97.4543 139.712L101.477 139.712C101.477 139.342 101.403 139.013 101.255 138.723C101.111 138.433 100.903 138.205 100.633 138.037C100.366 137.869 100.051 137.786 99.6873 137.786C99.2867 137.786 98.9401 137.885 98.6475 138.084C98.3578 138.28 98.1347 138.536 97.9785 138.851C97.8222 139.166 97.7441 139.504 97.7441 139.865L97.7441 140.445C97.7441 140.939 97.8293 141.358 97.9998 141.702C98.1731 142.043 98.4132 142.303 98.72 142.482C99.0268 142.658 99.3833 142.746 99.7896 142.746C100.054 142.746 100.292 142.709 100.505 142.635C100.721 142.558 100.907 142.445 101.064 142.294C101.22 142.141 101.341 141.95 101.426 141.723L102.398 141.996C102.295 142.325 102.123 142.615 101.882 142.865C101.64 143.112 101.342 143.305 100.987 143.445C100.632 143.581 100.233 143.649 99.7896 143.649ZM104.166 143.513L104.166 134.786L105.172 134.786L105.172 138.007L105.257 138.007C105.331 137.893 105.433 137.749 105.564 137.572C105.697 137.393 105.888 137.234 106.135 137.095C106.385 136.953 106.723 136.882 107.149 136.882C107.7 136.882 108.186 137.02 108.606 137.295C109.027 137.571 109.355 137.962 109.591 138.467C109.827 138.973 109.944 139.57 109.944 140.257C109.944 140.95 109.827 141.551 109.591 142.06C109.355 142.565 109.028 142.957 108.611 143.236C108.193 143.511 107.711 143.649 107.166 143.649C106.746 143.649 106.409 143.58 106.156 143.44C105.903 143.298 105.709 143.138 105.572 142.959C105.436 142.777 105.331 142.626 105.257 142.507L105.138 142.507L105.138 143.513L104.166 143.513ZM105.155 140.24C105.155 140.734 105.227 141.17 105.372 141.548C105.517 141.923 105.728 142.217 106.007 142.43C106.285 142.641 106.626 142.746 107.03 142.746C107.45 142.746 107.801 142.635 108.082 142.413C108.366 142.189 108.579 141.888 108.721 141.51C108.866 141.129 108.939 140.706 108.939 140.24C108.939 139.78 108.868 139.365 108.726 138.996C108.586 138.624 108.375 138.33 108.091 138.114C107.809 137.895 107.456 137.786 107.03 137.786C106.621 137.786 106.277 137.889 105.998 138.097C105.72 138.301 105.51 138.588 105.368 138.957C105.226 139.324 105.155 139.751 105.155 140.24Z" fill="rgb(128,141,158)" fill-rule="nonzero" />
		</g>
		<g id="Group 33129">
			<rect id="Rectangle 2989" width="12.000000" height="49.535065" x="38.250000" y="19.000000" rx="6.000000" fill="rgb(234.812,109.892,70.4437)" />
			<rect id="Rectangle 2989" width="15.000000" height="52.535065" x="36.750000" y="17.500000" rx="7.500000" stroke="rgb(255,255,255)" stroke-width="3" />
			<rect id="Rectangle 2988" width="12.000000" height="49.535065" x="38.250000" y="33.796387" rx="6.000000" fill="rgb(32,191,247)" />
			<rect id="Rectangle 2988" width="15.000000" height="52.535065" x="36.750000" y="32.296387" rx="7.500000" stroke="rgb(255,255,255)" stroke-width="3" />
			<rect id="Rectangle 2981" width="12.000000" height="49.535065" x="38.250000" y="71.108398" rx="6.000000" fill="rgb(34,128.418,255)" />
			<rect id="Rectangle 2981" width="15.000000" height="52.535065" x="36.750000" y="69.608398" rx="7.500000" stroke="rgb(255,255,255)" stroke-width="3" />
		</g>
		<g id="Group 33130">
			<rect id="Rectangle 2989" width="12.000000" height="32.291847" x="94.250000" y="53.095703" rx="6.000000" fill="rgb(234.812,109.892,70.4437)" />
			<rect id="Rectangle 2989" width="15.000000" height="35.291847" x="92.750000" y="51.595703" rx="7.500000" stroke="rgb(255,255,255)" stroke-width="3" />
			<rect id="Rectangle 2988" width="12.000000" height="32.291847" x="94.250000" y="77.541748" rx="6.000000" fill="rgb(32,191,247)" />
			<rect id="Rectangle 2988" width="15.000000" height="35.291847" x="92.750000" y="76.041748" rx="7.500000" stroke="rgb(255,255,255)" stroke-width="3" />
			<rect id="Rectangle 2981" width="12.000000" height="17.369440" x="94.250000" y="103.274170" rx="6.000000" fill="rgb(34,128.418,255)" />
			<rect id="Rectangle 2981" width="15.000000" height="20.369440" x="92.750000" y="101.774170" rx="7.500000" stroke="rgb(255,255,255)" stroke-width="3" />
		</g>
		<g id="Group 33131">
			<rect id="Rectangle 2989" width="12.000000" height="30.724342" x="150.250000" y="57.598877" rx="6.000000" fill="rgb(234.812,109.892,70.4437)" />
			<rect id="Rectangle 2989" width="15.000000" height="33.724342" x="148.750000" y="56.098877" rx="7.500000" stroke="rgb(255,255,255)" stroke-width="3" />
			<rect id="Rectangle 2988" width="12.000000" height="30.724342" x="150.250000" y="66.776855" rx="6.000000" fill="rgb(32,191,247)" />
			<rect id="Rectangle 2988" width="15.000000" height="33.724342" x="148.750000" y="65.276855" rx="7.500000" stroke="rgb(255,255,255)" stroke-width="3" />
			<rect id="Rectangle 2981" width="12.000000" height="30.724342" x="150.250000" y="89.920166" rx="6.000000" fill="rgb(34,128.418,255)" />
			<rect id="Rectangle 2981" width="15.000000" height="33.724342" x="148.750000" y="88.420166" rx="7.500000" stroke="rgb(255,255,255)" stroke-width="3" />
		</g>
	</g>
</svg>
