<svg viewBox="0 0 17.4875 17.4874" xmlns="http://www.w3.org/2000/svg" xmlns:xlink="http://www.w3.org/1999/xlink" width="17.487549" height="17.487427" fill="none" customFrame="#000000">
	<rect id="vuesax/linear/more" width="17.487436" height="17.487436" x="0.000244" y="0.000061" fill="rgb(255,255,255)" fill-opacity="0" />
	<g id="vuesax/linear/more">
		<g id="more">
			<path id="Vector" d="M3.64332 7.28668C2.84181 7.28668 2.18604 7.94246 2.18604 8.74397C2.18604 9.54548 2.84181 10.2013 3.64332 10.2013C4.44483 10.2013 5.10061 9.54548 5.10061 8.74397C5.10061 7.94246 4.44483 7.28668 3.64332 7.28668Z" fill="rgb(126.154,131.588,145.562)" fill-rule="nonzero" />
			<path id="Vector" d="M13.8445 7.28668C13.043 7.28668 12.3872 7.94246 12.3872 8.74397C12.3872 9.54548 13.043 10.2013 13.8445 10.2013C14.646 10.2013 15.3018 9.54548 15.3018 8.74397C15.3018 7.94246 14.646 7.28668 13.8445 7.28668Z" fill="rgb(126.154,131.588,145.562)" fill-rule="nonzero" />
			<path id="Vector" d="M8.74391 7.28668C7.9424 7.28668 7.28662 7.94246 7.28662 8.74397C7.28662 9.54548 7.9424 10.2013 8.74391 10.2013C9.54541 10.2013 10.2012 9.54548 10.2012 8.74397C10.2012 7.94246 9.54541 7.28668 8.74391 7.28668Z" fill="rgb(126.154,131.588,145.562)" fill-rule="nonzero" />
			<path id="Vector" d="M17.4877 6.10352e-05L0.000244141 6.10352e-05L0.000244141 17.4875L17.4877 17.4875L17.4877 6.10352e-05Z" opacity="0" fill="rgb(126.154,131.588,145.562)" fill-rule="evenodd" />
		</g>
	</g>
</svg>
