<svg viewBox="0 0 366.072 260.101" xmlns="http://www.w3.org/2000/svg" xmlns:xlink="http://www.w3.org/1999/xlink" width="366.071777" height="260.101074" fill="none">
	<defs>
		<filter id="pixso_custom_mask_type_outline">
			<feColorMatrix type="matrix" values="0 0 0 0 1 0 0 0 0 1 0 0 0 0 1 0 0 0 1 0 " />
		</filter>
		<clipPath id="clipPath_0">
			<rect width="30.500000" height="206.000000" x="0.000000" y="0.000000" fill="rgb(255,255,255)" transform="matrix(1,0.000276082,-0.000276082,1,431.327,54.1191)" />
		</clipPath>
		<clipPath id="clipPath_1">
			<rect width="30.500000" height="206.000000" x="0.000000" y="0.000000" fill="rgb(255,255,255)" transform="matrix(1,0.000276082,-0.000276082,1,376.427,54.104)" />
		</clipPath>
		<clipPath id="clipPath_2">
			<rect width="26.840000" height="206.000000" x="0.000000" y="0.000000" fill="rgb(255,255,255)" transform="matrix(1,0.000276082,-0.000276082,1,325.187,54.0898)" />
		</clipPath>
		<clipPath id="clipPath_3">
			<rect width="29.280001" height="206.000000" x="0.000000" y="0.000000" fill="rgb(255,255,255)" transform="matrix(1,0.000276082,-0.000276082,1,271.507,54.075)" />
		</clipPath>
		<clipPath id="clipPath_4">
			<rect width="30.500000" height="206.000000" x="0.000000" y="0.000000" fill="rgb(255,255,255)" transform="matrix(1,0.000276082,-0.000276082,1,216.607,54.0598)" />
		</clipPath>
		<clipPath id="clipPath_5">
			<rect width="48.799999" height="206.000000" x="0.000000" y="0.000000" fill="rgb(255,255,255)" transform="matrix(1,0.000276082,-0.000276082,1,155.607,54.043)" />
		</clipPath>
		<linearGradient id="paint_linear_0" x1="24.3999996" x2="24.3999996" y1="-4.55596661e-15" y2="183" gradientUnits="userSpaceOnUse">
			<stop stop-color="rgb(42,133,255)" offset="0" stop-opacity="1" />
			<stop stop-color="rgb(42,133,255)" offset="1" stop-opacity="0" />
		</linearGradient>
		<clipPath id="clipPath_6">
			<rect width="29.280001" height="206.000000" x="0.000000" y="0.000000" fill="rgb(255,255,255)" transform="matrix(1,0.000276082,-0.000276082,1,114.127,54.0315)" />
		</clipPath>
		<clipPath id="clipPath_7">
			<rect width="32.939999" height="206.000000" x="0.000000" y="0.000000" fill="rgb(255,255,255)" transform="matrix(1,0.000276082,-0.000276082,1,56.7869,54.0156)" />
		</clipPath>
		<clipPath id="clipPath_8">
			<rect width="28.059999" height="206.000000" x="0.000000" y="0.000000" fill="rgb(255,255,255)" transform="matrix(1,0.000276082,-0.000276082,1,4.32715,54.0012)" />
		</clipPath>
		<clipPath id="clipPath_9">
			<rect width="30.500000" height="206.000000" x="0.000000" y="0.000000" fill="rgb(255,255,255)" transform="matrix(1,0.000276082,-0.000276082,1,-50.573,53.9861)" />
		</clipPath>
		<clipPath id="clipPath_10">
			<rect width="29.280001" height="206.000000" x="0.000000" y="0.000000" fill="rgb(255,255,255)" transform="matrix(1,0.000276082,-0.000276082,1,-104.253,53.9712)" />
		</clipPath>
		<clipPath id="clipPath_11">
			<rect width="29.280001" height="206.000000" x="0.000000" y="0.000000" fill="rgb(255,255,255)" transform="matrix(1,0.000276082,-0.000276082,1,-157.933,53.9563)" />
		</clipPath>
		<g id="pixso_custom_effect_0">
			<effect x="0.000000" y="4.000000" visibility="visible" fill="rgb(159.304,163.225,183.812)" style="mix-blend-mode:multiply" fill-opacity="0.25" effectType="dropShadow" stdDeviation="22" radius="0" />
		</g>
		<filter id="filter_0" width="116.007080" height="82.013184" x="165.547363" y="32.055176" filterUnits="userSpaceOnUse" customEffect="url(#pixso_custom_effect_0)" color-interpolation-filters="sRGB">
			<feFlood flood-opacity="0" result="BackgroundImageFix" />
			<feOffset dx="0.000000" dy="4.000000" in="SourceAlpha" />
			<feGaussianBlur stdDeviation="7.33333349" />
			<feColorMatrix type="matrix" values="0 0 0 0 0.624722 0 0 0 0 0.6401 0 0 0 0 0.720833 0 0 0 0.25 0 " />
			<feBlend result="effect_dropShadow_1" in2="BackgroundImageFix" mode="normal" />
			<feBlend result="shape" in="SourceGraphic" in2="effect_dropShadow_1" mode="normal" />
		</filter>
		<clipPath id="clipPath_12">
			<rect width="17.080000" height="24.000000" x="0.000000" y="0.000000" fill="rgb(255,255,255)" transform="matrix(1,0.000276082,-0.000276082,1,10.4275,52.0029)" />
		</clipPath>
		<clipPath id="clipPath_13">
			<rect width="10.980000" height="24.000000" x="0.000000" y="0.000000" fill="rgb(255,255,255)" transform="matrix(1,0.000276082,-0.000276082,1,17.7004,222.005)" />
		</clipPath>
		<clipPath id="clipPath_14">
			<rect width="29.280001" height="24.000000" x="0.000000" y="0.000000" fill="rgb(255,255,255)" transform="matrix(1,0.000276082,-0.000276082,1,-0.590088,188)" />
		</clipPath>
		<clipPath id="clipPath_15">
			<rect width="29.280001" height="24.000000" x="0.000000" y="0.000000" fill="rgb(255,255,255)" transform="matrix(1,0.000276082,-0.000276082,1,-0.580566,154)" />
		</clipPath>
		<clipPath id="clipPath_16">
			<rect width="29.280001" height="24.000000" x="0.000000" y="0.000000" fill="rgb(255,255,255)" transform="matrix(1,0.000276082,-0.000276082,1,-0.571289,120)" />
		</clipPath>
		<clipPath id="clipPath_17">
			<rect width="29.280001" height="24.000000" x="0.000000" y="0.000000" fill="rgb(255,255,255)" transform="matrix(1,0.000276082,-0.000276082,1,-0.561768,85.9998)" />
		</clipPath>
		<g id="pixso_custom_effect_1">
			<effect x="0.000000" y="2.000000" visibility="visible" fill="rgb(68.4303,68.4303,79.175)" fill-opacity="0.150000006" effectType="dropShadow" showShadowBehind="1" stdDeviation="4" radius="0" />
		</g>
		<filter id="filter_1" width="22.000000" height="22.000000" x="167.546631" y="82.049316" filterUnits="userSpaceOnUse" customEffect="url(#pixso_custom_effect_1)" color-interpolation-filters="sRGB">
			<feFlood flood-opacity="0" result="BackgroundImageFix" />
			<feOffset dx="0.000000" dy="2.000000" in="SourceAlpha" />
			<feGaussianBlur stdDeviation="1.33333337" />
			<feColorMatrix type="matrix" values="0 0 0 0 0.268354 0 0 0 0 0.268354 0 0 0 0 0.31049 0 0 0 0.15 0 " />
			<feBlend result="effect_dropShadow_1" in2="BackgroundImageFix" mode="normal" />
			<feBlend result="shape" in="SourceGraphic" in2="effect_dropShadow_1" mode="normal" />
		</filter>
	</defs>
	<mask id="mask_0" width="367.220001" height="260.000000" x="0.000000" y="0.000000" maskUnits="objectBoundingBox">
		<g filter="url(#pixso_custom_mask_type_outline)">
			<rect id="Mask" width="367.220001" height="260.000000" x="0.000000" y="0.000000" fill="rgb(255,255,255)" transform="matrix(1,0.000276082,-0.000276082,1,-0.540283,7.99976)" />
			<rect id="Mask" width="367.220001" height="260.000000" x="0.000000" y="0.000000" stroke="rgb(150.96,150.96,150.96)" stroke-opacity="0" stroke-width="0" transform="matrix(1,0.000276082,-0.000276082,1,-0.540283,7.99976)" />
		</g>
	</mask>
	<rect id="#Sales Figures" width="366.000000" height="260.000000" x="0.000000" y="0.000000" fill="rgb(255,255,255)" fill-opacity="0" transform="matrix(1,0.000276082,-0.000276082,1,0.0717773,0)" />
	<g id="Month" mask="url(#mask_0)">
		<g id="Month">
			<g id="Dec" clip-path="url(#clipPath_0)" customFrame="url(#clipPath_0)">
				<rect id="Dec" width="30.500000" height="206.000000" x="0.000000" y="0.000000" fill="rgb(255,255,255)" fill-opacity="0" transform="matrix(1,0.000276082,-0.000276082,1,431.327,54.1191)" />
				<path id="Dec" d="M8.20335 11.1016L6.4221 11.1016L6.43382 10.1816L8.20335 10.1816C8.81272 10.1816 9.32054 10.0547 9.72679 9.80078C10.133 9.54297 10.4377 9.18359 10.6408 8.72266C10.8479 8.25781 10.9514 7.71484 10.9514 7.09375L10.9514 6.57227C10.9514 6.08398 10.8928 5.65039 10.7756 5.27148C10.6584 4.88867 10.4866 4.56641 10.26 4.30469C10.0334 4.03906 9.75608 3.83789 9.42796 3.70117C9.10374 3.56445 8.73069 3.49609 8.30882 3.49609L6.38694 3.49609L6.38694 2.57031L8.30882 2.57031C8.86741 2.57031 9.37718 2.66406 9.83811 2.85156C10.2991 3.03516 10.6955 3.30273 11.0276 3.6543C11.3635 4.00195 11.6213 4.42383 11.801 4.91992C11.9807 5.41211 12.0705 5.9668 12.0705 6.58398L12.0705 7.09375C12.0705 7.71094 11.9807 8.26758 11.801 8.76367C11.6213 9.25586 11.3616 9.67578 11.0217 10.0234C10.6858 10.3711 10.2795 10.6387 9.80296 10.8262C9.3303 11.0098 8.7971 11.1016 8.20335 11.1016ZM7.02561 2.57031L7.02561 11.1016L5.89475 11.1016L5.89475 2.57031L7.02561 2.57031ZM16.3223 11.2188C15.8809 11.2188 15.4805 11.1445 15.1211 10.9961C14.7656 10.8438 14.459 10.6309 14.2012 10.3574C13.9473 10.084 13.752 9.75977 13.6152 9.38477C13.4785 9.00977 13.4102 8.59961 13.4102 8.1543L13.4102 7.9082C13.4102 7.39258 13.4863 6.93359 13.6387 6.53125C13.791 6.125 13.998 5.78125 14.2598 5.5C14.5215 5.21875 14.8184 5.00586 15.1504 4.86133C15.4824 4.7168 15.8262 4.64453 16.1816 4.64453C16.6348 4.64453 17.0254 4.72266 17.3535 4.87891C17.6855 5.03516 17.957 5.25391 18.168 5.53516C18.3789 5.8125 18.5352 6.14062 18.6367 6.51953C18.7383 6.89453 18.7891 7.30469 18.7891 7.75L18.7891 8.23633L14.0547 8.23633L14.0547 7.35156L17.7051 7.35156L17.7051 7.26953C17.6895 6.98828 17.6309 6.71484 17.5293 6.44922C17.4316 6.18359 17.2754 5.96484 17.0605 5.79297C16.8457 5.62109 16.5527 5.53516 16.1816 5.53516C15.9355 5.53516 15.709 5.58789 15.502 5.69336C15.2949 5.79492 15.1172 5.94727 14.9688 6.15039C14.8203 6.35352 14.7051 6.60156 14.623 6.89453C14.541 7.1875 14.5 7.52539 14.5 7.9082L14.5 8.1543C14.5 8.45508 14.541 8.73828 14.623 9.00391C14.709 9.26562 14.832 9.49609 14.9922 9.69531C15.1562 9.89453 15.3535 10.0508 15.584 10.1641C15.8184 10.2773 16.084 10.334 16.3809 10.334C16.7637 10.334 17.0879 10.2559 17.3535 10.0996C17.6191 9.94336 17.8516 9.73438 18.0508 9.47266L18.707 9.99414C18.5703 10.2012 18.3965 10.3984 18.1855 10.5859C17.9746 10.7734 17.7148 10.9258 17.4062 11.043C17.1016 11.1602 16.7402 11.2188 16.3223 11.2188ZM22.6775 10.3281C22.9353 10.3281 23.1736 10.2754 23.3924 10.1699C23.6111 10.0645 23.7908 9.91992 23.9314 9.73633C24.072 9.54883 24.1521 9.33594 24.1717 9.09766L25.2029 9.09766C25.1834 9.47266 25.0564 9.82227 24.822 10.1465C24.5916 10.4668 24.2888 10.7266 23.9138 10.9258C23.5388 11.1211 23.1267 11.2188 22.6775 11.2188C22.2009 11.2188 21.7849 11.1348 21.4295 10.9668C21.0779 10.7988 20.7849 10.5684 20.5506 10.2754C20.3201 9.98242 20.1463 9.64648 20.0291 9.26758C19.9158 8.88477 19.8592 8.48047 19.8592 8.05469L19.8592 7.80859C19.8592 7.38281 19.9158 6.98047 20.0291 6.60156C20.1463 6.21875 20.3201 5.88086 20.5506 5.58789C20.7849 5.29492 21.0779 5.06445 21.4295 4.89648C21.7849 4.72852 22.2009 4.64453 22.6775 4.64453C23.1736 4.64453 23.6072 4.74609 23.9783 4.94922C24.3494 5.14844 24.6404 5.42188 24.8513 5.76953C25.0662 6.11328 25.1834 6.50391 25.2029 6.94141L24.1717 6.94141C24.1521 6.67969 24.0779 6.44336 23.949 6.23242C23.824 6.02148 23.6521 5.85352 23.4334 5.72852C23.2185 5.59961 22.9666 5.53516 22.6775 5.53516C22.3455 5.53516 22.0662 5.60156 21.8396 5.73438C21.617 5.86328 21.4392 6.03906 21.3064 6.26172C21.1775 6.48047 21.0838 6.72461 21.0252 6.99414C20.9705 7.25977 20.9431 7.53125 20.9431 7.80859L20.9431 8.05469C20.9431 8.33203 20.9705 8.60547 21.0252 8.875C21.0799 9.14453 21.1717 9.38867 21.3006 9.60742C21.4334 9.82617 21.6111 10.002 21.8338 10.1348C22.0603 10.2637 22.3416 10.3281 22.6775 10.3281Z" fill="rgb(146.358,146.358,157.137)" fill-rule="nonzero" transform="matrix(1,0.000276082,-0.000276082,1,430.669,230.375)" />
				<path id="Shape" d="M0 183L2.60059e-14 0L1.22 0L1.22 183L0 183Z" fill="rgb(241.19,241.19,245.299)" fill-rule="evenodd" transform="matrix(1,0.000276082,-0.000276082,1,444.747,54.1228)" />
				<path id="Shape" d="M2.60059e-14 0L1.22 0L1.22 183L0 183L2.60059e-14 0Z" fill-rule="evenodd" stroke="rgb(150.96,150.96,150.96)" stroke-opacity="0" stroke-width="0" transform="matrix(1,0.000276082,-0.000276082,1,444.747,54.1228)" />
			</g>
			<g id="Nov" clip-path="url(#clipPath_1)" customFrame="url(#clipPath_1)">
				<rect id="Nov" width="30.500000" height="206.000000" x="0.000000" y="0.000000" fill="rgb(255,255,255)" fill-opacity="0" transform="matrix(1,0.000276082,-0.000276082,1,376.427,54.104)" />
				<path id="Nov" d="M12.1526 2.57031L12.1526 11.1016L11.0158 11.1016L6.72093 4.52148L6.72093 11.1016L5.59007 11.1016L5.59007 2.57031L6.72093 2.57031L11.0334 9.16797L11.0334 2.57031L12.1526 2.57031ZM13.791 8.00195L13.791 7.86719C13.791 7.41016 13.8574 6.98633 13.9902 6.5957C14.123 6.20117 14.3145 5.85938 14.5645 5.57031C14.8145 5.27734 15.1172 5.05078 15.4727 4.89062C15.8281 4.72656 16.2266 4.64453 16.668 4.64453C17.1133 4.64453 17.5137 4.72656 17.8691 4.89062C18.2285 5.05078 18.5332 5.27734 18.7832 5.57031C19.0371 5.85938 19.2305 6.20117 19.3633 6.5957C19.4961 6.98633 19.5625 7.41016 19.5625 7.86719L19.5625 8.00195C19.5625 8.45898 19.4961 8.88281 19.3633 9.27344C19.2305 9.66406 19.0371 10.0059 18.7832 10.2988C18.5332 10.5879 18.2305 10.8145 17.875 10.9785C17.5234 11.1387 17.125 11.2188 16.6797 11.2188C16.2344 11.2188 15.834 11.1387 15.4785 10.9785C15.123 10.8145 14.8184 10.5879 14.5645 10.2988C14.3145 10.0059 14.123 9.66406 13.9902 9.27344C13.8574 8.88281 13.791 8.45898 13.791 8.00195ZM14.875 7.86719L14.875 8.00195C14.875 8.31836 14.9121 8.61719 14.9863 8.89844C15.0605 9.17578 15.1719 9.42188 15.3203 9.63672C15.4727 9.85156 15.6621 10.0215 15.8887 10.1465C16.1152 10.2676 16.3789 10.3281 16.6797 10.3281C16.9766 10.3281 17.2363 10.2676 17.459 10.1465C17.6855 10.0215 17.873 9.85156 18.0215 9.63672C18.1699 9.42188 18.2812 9.17578 18.3555 8.89844C18.4336 8.61719 18.4727 8.31836 18.4727 8.00195L18.4727 7.86719C18.4727 7.55469 18.4336 7.25977 18.3555 6.98242C18.2812 6.70117 18.168 6.45312 18.0156 6.23828C17.8672 6.01953 17.6797 5.84766 17.4531 5.72266C17.2305 5.59766 16.9688 5.53516 16.668 5.53516C16.3711 5.53516 16.1094 5.59766 15.8828 5.72266C15.6602 5.84766 15.4727 6.01953 15.3203 6.23828C15.1719 6.45312 15.0605 6.70117 14.9863 6.98242C14.9121 7.25977 14.875 7.55469 14.875 7.86719ZM22.8416 10.123L24.5759 4.76172L25.6834 4.76172L23.4041 11.1016L22.6775 11.1016L22.8416 10.123ZM21.3943 4.76172L23.1814 10.1523L23.3045 11.1016L22.5779 11.1016L20.281 4.76172L21.3943 4.76172Z" fill="rgb(146.358,146.358,157.137)" fill-rule="nonzero" transform="matrix(1,0.000276082,-0.000276082,1,375.768,230.36)" />
				<path id="Shape" d="M0 183L2.60059e-14 0L1.22 0L1.22 183L0 183Z" fill="rgb(241.19,241.19,245.299)" fill-rule="evenodd" transform="matrix(1,0.000276082,-0.000276082,1,389.847,54.1077)" />
				<path id="Shape" d="M2.60059e-14 0L1.22 0L1.22 183L0 183L2.60059e-14 0Z" fill-rule="evenodd" stroke="rgb(150.96,150.96,150.96)" stroke-opacity="0" stroke-width="0" transform="matrix(1,0.000276082,-0.000276082,1,389.847,54.1077)" />
			</g>
			<g id="Oct" clip-path="url(#clipPath_2)" customFrame="url(#clipPath_2)">
				<rect id="Oct" width="26.840000" height="206.000000" x="0.000000" y="0.000000" fill="rgb(255,255,255)" fill-opacity="0" transform="matrix(1,0.000276082,-0.000276082,1,325.187,54.0898)" />
				<path id="Oct" d="M11.7389 7.5C11.7389 8.42045 11.5727 9.21591 11.2403 9.88636C10.9079 10.5568 10.452 11.0739 9.87242 11.4375C9.29287 11.8011 8.63094 11.983 7.88662 11.983C7.1423 11.983 6.48037 11.8011 5.90082 11.4375C5.32128 11.0739 4.86531 10.5568 4.53293 9.88636C4.20054 9.21591 4.03435 8.42045 4.03435 7.5C4.03435 6.57955 4.20054 5.78409 4.53293 5.11364C4.86531 4.44318 5.32128 3.92614 5.90082 3.5625C6.48037 3.19886 7.1423 3.01705 7.88662 3.01705C8.63094 3.01705 9.29287 3.19886 9.87242 3.5625C10.452 3.92614 10.9079 4.44318 11.2403 5.11364C11.5727 5.78409 11.7389 6.57955 11.7389 7.5ZM10.7162 7.5C10.7162 6.74432 10.5897 6.10653 10.3369 5.58665C10.0869 5.06676 9.74742 4.6733 9.31844 4.40625C8.8923 4.1392 8.41503 4.00568 7.88662 4.00568C7.35821 4.00568 6.87952 4.1392 6.45054 4.40625C6.0244 4.6733 5.68492 5.06676 5.43207 5.58665C5.18207 6.10653 5.05707 6.74432 5.05707 7.5C5.05707 8.25568 5.18207 8.89347 5.43207 9.41335C5.68492 9.93324 6.0244 10.3267 6.45054 10.5938C6.87952 10.8608 7.35821 10.9943 7.88662 10.9943C8.41503 10.9943 8.8923 10.8608 9.31844 10.5938C9.74742 10.3267 10.0869 9.93324 10.3369 9.41335C10.5897 8.89347 10.7162 8.25568 10.7162 7.5ZM16.0386 12C15.425 12 14.8966 11.8551 14.4534 11.5653C14.0102 11.2756 13.6693 10.8764 13.4307 10.3679C13.192 9.85938 13.0727 9.27841 13.0727 8.625C13.0727 7.96023 13.1949 7.37358 13.4392 6.86506C13.6863 6.35369 14.0301 5.95455 14.4704 5.66761C14.9136 5.37784 15.4307 5.23295 16.0216 5.23295C16.4818 5.23295 16.8966 5.31818 17.2659 5.48864C17.6352 5.65909 17.9378 5.89773 18.1736 6.20455C18.4093 6.51136 18.5557 6.86932 18.6125 7.27841L17.6068 7.27841C17.5301 6.98011 17.3596 6.71591 17.0954 6.4858C16.8341 6.25284 16.4818 6.13636 16.0386 6.13636C15.6466 6.13636 15.3028 6.23864 15.0074 6.44318C14.7147 6.64489 14.4861 6.9304 14.3213 7.29972C14.1593 7.66619 14.0784 8.09659 14.0784 8.59091C14.0784 9.09659 14.1579 9.53693 14.317 9.91193C14.4789 10.2869 14.7062 10.5781 14.9988 10.7855C15.2943 10.9929 15.6409 11.0966 16.0386 11.0966C16.3 11.0966 16.5372 11.0511 16.7503 10.9602C16.9633 10.8693 17.1437 10.7386 17.2914 10.5682C17.4392 10.3977 17.5443 10.1932 17.6068 9.95455L18.6125 9.95455C18.5557 10.3409 18.415 10.6889 18.1906 10.9986C17.969 11.3054 17.675 11.5497 17.3085 11.7315C16.9449 11.9105 16.5216 12 16.0386 12ZM22.9292 5.31818L22.9292 6.17045L19.5372 6.17045L19.5372 5.31818L22.9292 5.31818ZM20.5258 3.75L21.5315 3.75L21.5315 9.98864C21.5315 10.2727 21.5727 10.4858 21.6551 10.6278C21.7403 10.767 21.8483 10.8608 21.9789 10.9091C22.1125 10.9545 22.2531 10.9773 22.4008 10.9773C22.5116 10.9773 22.6025 10.9716 22.6736 10.9602C22.7446 10.946 22.8014 10.9347 22.844 10.9261L23.0486 11.8295C22.9804 11.8551 22.8852 11.8807 22.763 11.9062C22.6409 11.9347 22.4861 11.9489 22.2986 11.9489C22.0145 11.9489 21.7361 11.8878 21.4633 11.7656C21.1934 11.6435 20.969 11.4574 20.79 11.2074C20.6139 10.9574 20.5258 10.642 20.5258 10.2614L20.5258 3.75Z" fill="rgb(128,141,158)" fill-rule="nonzero" transform="matrix(1,0.000276082,-0.000276082,1,324.525,242.09)" />
				<path id="Shape" d="M0 183L2.60059e-14 0L1.22 0L1.22 183L0 183Z" fill="rgb(233.166,236.469,242.25)" fill-rule="evenodd" transform="matrix(1,0.000276082,-0.000276082,1,337.387,54.093)" />
			</g>
			<g id="Sep" clip-path="url(#clipPath_3)" customFrame="url(#clipPath_3)">
				<rect id="Sep" width="29.280001" height="206.000000" x="0.000000" y="0.000000" fill="rgb(255,255,255)" fill-opacity="0" transform="matrix(1,0.000276082,-0.000276082,1,271.507,54.075)" />
				<path id="Sep" d="M9.49494 5.31818C9.4438 4.88636 9.23641 4.55114 8.87278 4.3125C8.50914 4.07386 8.06312 3.95455 7.53471 3.95455C7.14835 3.95455 6.81028 4.01704 6.5205 4.14205C6.23357 4.26705 6.00914 4.43892 5.84721 4.65767C5.68812 4.87642 5.60857 5.125 5.60857 5.40341C5.60857 5.63636 5.66397 5.83665 5.77477 6.00426C5.8884 6.16903 6.03329 6.30682 6.20942 6.41761C6.38556 6.52557 6.57022 6.61506 6.7634 6.68608C6.95658 6.75426 7.13414 6.80966 7.29607 6.85227L8.18244 7.09091C8.40971 7.15057 8.66255 7.23295 8.94096 7.33807C9.22221 7.44318 9.49067 7.58665 9.74636 7.76847C10.0049 7.94744 10.2179 8.17756 10.3856 8.45881C10.5532 8.74006 10.637 9.08523 10.637 9.49432C10.637 9.96591 10.5134 10.392 10.2662 10.7727C10.0219 11.1534 9.66397 11.456 9.19238 11.6804C8.72363 11.9048 8.15403 12.017 7.48357 12.017C6.85857 12.017 6.31738 11.9162 5.85999 11.7145C5.40545 11.5128 5.04749 11.2315 4.78613 10.8707C4.52761 10.5099 4.3813 10.0909 4.34721 9.61364L5.43812 9.61364C5.46653 9.94318 5.57732 10.2159 5.7705 10.4318C5.96653 10.6449 6.21369 10.804 6.51198 10.9091C6.81312 11.0114 7.13698 11.0625 7.48357 11.0625C7.88698 11.0625 8.2492 10.9972 8.57022 10.8665C8.89124 10.733 9.1455 10.5483 9.333 10.3125C9.5205 10.0739 9.61425 9.79545 9.61425 9.47727C9.61425 9.1875 9.53329 8.9517 9.37136 8.76989C9.20942 8.58807 8.99636 8.44034 8.73215 8.3267C8.46795 8.21307 8.18244 8.11364 7.87562 8.02841L6.80175 7.72159C6.11994 7.52557 5.58016 7.24574 5.18244 6.8821C4.78471 6.51847 4.58585 6.04261 4.58585 5.45455C4.58585 4.96591 4.71795 4.53977 4.98215 4.17614C5.2492 3.80966 5.60715 3.52557 6.05602 3.32386C6.50772 3.11932 7.01198 3.01705 7.5688 3.01705C8.1313 3.01705 8.6313 3.1179 9.0688 3.3196C9.5063 3.51847 9.85289 3.79119 10.1086 4.13778C10.3671 4.48437 10.5035 4.87784 10.5177 5.31818L9.49494 5.31818ZM14.9825 12C14.3518 12 13.8078 11.8608 13.3504 11.5824C12.8959 11.3011 12.545 10.9091 12.2978 10.4062C12.0535 9.90057 11.9314 9.3125 11.9314 8.64205C11.9314 7.97159 12.0535 7.38068 12.2978 6.86932C12.545 6.35511 12.8888 5.95455 13.3291 5.66761C13.7723 5.37784 14.2893 5.23295 14.8802 5.23295C15.2211 5.23295 15.5578 5.28977 15.8902 5.40341C16.2226 5.51704 16.5251 5.7017 16.7978 5.95739C17.0706 6.21023 17.2879 6.54545 17.4498 6.96307C17.6118 7.38068 17.6927 7.89489 17.6927 8.50568L17.6927 8.93182L12.6473 8.93182L12.6473 8.0625L16.67 8.0625C16.67 7.69318 16.5961 7.36364 16.4484 7.07386C16.3035 6.78409 16.0961 6.5554 15.8263 6.38778C15.5592 6.22017 15.2439 6.13636 14.8802 6.13636C14.4797 6.13636 14.1331 6.2358 13.8405 6.43466C13.5507 6.63068 13.3277 6.88636 13.1714 7.2017C13.0152 7.51705 12.9371 7.85511 12.9371 8.21591L12.9371 8.79545C12.9371 9.28977 13.0223 9.70881 13.1927 10.0526C13.366 10.3935 13.6061 10.6534 13.9129 10.8324C14.2197 11.0085 14.5763 11.0966 14.9825 11.0966C15.2467 11.0966 15.4853 11.0597 15.6984 10.9858C15.9143 10.9091 16.1004 10.7955 16.2567 10.6449C16.4129 10.4915 16.5336 10.3011 16.6189 10.0739L17.5905 10.3466C17.4882 10.6761 17.3163 10.9659 17.0748 11.2159C16.8334 11.4631 16.5351 11.6562 16.18 11.7955C15.8248 11.9318 15.4257 12 14.9825 12ZM19.2226 14.3182L19.2226 5.31818L20.1942 5.31818L20.1942 6.35795L20.3135 6.35795C20.3873 6.24432 20.4896 6.09943 20.6203 5.9233C20.7538 5.74432 20.9442 5.58523 21.1913 5.44602C21.4413 5.30398 21.7794 5.23295 22.2055 5.23295C22.7567 5.23295 23.2425 5.37074 23.6629 5.64631C24.0834 5.92187 24.4115 6.3125 24.6473 6.81818C24.8831 7.32386 25.001 7.92045 25.001 8.60795C25.001 9.30114 24.8831 9.90199 24.6473 10.4105C24.4115 10.9162 24.0848 11.3082 23.6672 11.5866C23.2496 11.8622 22.768 12 22.2226 12C21.8021 12 21.4655 11.9304 21.2126 11.7912C20.9598 11.6491 20.7652 11.4886 20.6288 11.3097C20.4925 11.1278 20.3873 10.9773 20.3135 10.858L20.2282 10.858L20.2282 14.3182L19.2226 14.3182ZM20.2112 8.59091C20.2112 9.08523 20.2836 9.52131 20.4285 9.89915C20.5734 10.2741 20.7851 10.5682 21.0635 10.7812C21.3419 10.9915 21.6828 11.0966 22.0862 11.0966C22.5067 11.0966 22.8575 10.9858 23.1388 10.7642C23.4228 10.5398 23.6359 10.2386 23.778 9.8608C23.9228 9.48011 23.9953 9.05682 23.9953 8.59091C23.9953 8.13068 23.9243 7.71591 23.7822 7.34659C23.643 6.97443 23.4314 6.6804 23.1473 6.46449C22.866 6.24574 22.5123 6.13636 22.0862 6.13636C21.6771 6.13636 21.3334 6.24006 21.055 6.44744C20.7765 6.65199 20.5663 6.93892 20.4243 7.30824C20.2822 7.67472 20.2112 8.10227 20.2112 8.59091Z" fill="rgb(128,141,158)" fill-rule="nonzero" transform="matrix(1,0.000276082,-0.000276082,1,270.845,242.075)" />
				<path id="Shape" d="M0 183L2.60059e-14 0L1.22 0L1.22 183L0 183Z" fill="rgb(233.166,236.469,242.25)" fill-rule="evenodd" transform="matrix(1,0.000276082,-0.000276082,1,284.927,54.0786)" />
			</g>
			<g id="Aug" clip-path="url(#clipPath_4)" customFrame="url(#clipPath_4)">
				<rect id="Aug" width="30.500000" height="206.000000" x="0.000000" y="0.000000" fill="rgb(255,255,255)" fill-opacity="0" transform="matrix(1,0.000276082,-0.000276082,1,216.607,54.0598)" />
				<path id="Aug" d="M5.46751 11.8636L4.35955 11.8636L7.5641 3.13636L8.65501 3.13636L11.8596 11.8636L10.7516 11.8636L8.14364 4.51705L8.07546 4.51705L5.46751 11.8636ZM5.8766 8.45455L10.3425 8.45455L10.3425 9.39205L5.8766 9.39205L5.8766 8.45455ZM17.2076 9.1875L17.2076 5.31818L18.2132 5.31818L18.2132 11.8636L17.2076 11.8636L17.2076 10.7557L17.1394 10.7557C16.986 11.0881 16.7473 11.3707 16.4235 11.6037C16.0996 11.8338 15.6905 11.9489 15.1962 11.9489C14.7871 11.9489 14.4235 11.8594 14.1053 11.6804C13.7871 11.4986 13.5371 11.2259 13.3553 10.8622C13.1735 10.4957 13.0826 10.0341 13.0826 9.47727L13.0826 5.31818L14.0882 5.31818L14.0882 9.40909C14.0882 9.88636 14.2218 10.267 14.4888 10.5511C14.7587 10.8352 15.1025 10.9773 15.5201 10.9773C15.7701 10.9773 16.0243 10.9134 16.2828 10.7855C16.5442 10.6577 16.763 10.4616 16.9391 10.1974C17.1181 9.93324 17.2076 9.59659 17.2076 9.1875ZM22.6973 14.4545C22.2115 14.4545 21.7939 14.392 21.4444 14.267C21.095 14.1449 20.8038 13.983 20.5708 13.7812C20.3407 13.5824 20.1575 13.3693 20.0211 13.142L20.8223 12.5795C20.9132 12.6989 21.0282 12.8352 21.1674 12.9886C21.3066 13.1449 21.497 13.2798 21.7385 13.3935C21.9828 13.5099 22.3024 13.5682 22.6973 13.5682C23.2257 13.5682 23.6618 13.4403 24.0055 13.1847C24.3493 12.929 24.5211 12.5284 24.5211 11.983L24.5211 10.6534L24.4359 10.6534C24.362 10.7727 24.2569 10.9205 24.1206 11.0966C23.987 11.2699 23.7939 11.4247 23.541 11.5611C23.291 11.6946 22.9529 11.7614 22.5268 11.7614C21.9984 11.7614 21.524 11.6364 21.1035 11.3864C20.6859 11.1364 20.3549 10.7727 20.1106 10.2955C19.8691 9.81818 19.7484 9.23864 19.7484 8.55682C19.7484 7.88636 19.8663 7.30256 20.1021 6.8054C20.3379 6.3054 20.666 5.91903 21.0865 5.64631C21.5069 5.37074 21.9927 5.23295 22.5439 5.23295C22.97 5.23295 23.3081 5.30398 23.5581 5.44602C23.8109 5.58523 24.0041 5.74432 24.1376 5.9233C24.274 6.09943 24.3791 6.24432 24.4529 6.35795L24.5552 6.35795L24.5552 5.31818L25.5268 5.31818L25.5268 12.0511C25.5268 12.6136 25.399 13.071 25.1433 13.4233C24.8904 13.7784 24.5495 14.0384 24.1206 14.2031C23.6944 14.3707 23.22 14.4545 22.6973 14.4545ZM22.6632 10.858C23.0666 10.858 23.4075 10.7656 23.6859 10.581C23.9643 10.3963 24.176 10.1307 24.3208 9.78409C24.4657 9.4375 24.5382 9.02273 24.5382 8.53977C24.5382 8.06818 24.4672 7.65199 24.3251 7.29119C24.1831 6.9304 23.9728 6.64773 23.6944 6.44318C23.416 6.23864 23.0723 6.13636 22.6632 6.13636C22.237 6.13636 21.8819 6.24432 21.5978 6.46023C21.3166 6.67614 21.1049 6.96591 20.9629 7.32955C20.8237 7.69318 20.7541 8.09659 20.7541 8.53977C20.7541 8.99432 20.8251 9.39631 20.9672 9.74574C21.112 10.0923 21.3251 10.3651 21.6064 10.5639C21.8904 10.7599 22.2427 10.858 22.6632 10.858Z" fill="rgb(128,141,158)" fill-rule="nonzero" transform="matrix(1,0.000276082,-0.000276082,1,215.945,242.06)" />
				<path id="Shape" d="M0 183L2.60059e-14 0L1.22 0L1.22 183L0 183Z" fill="rgb(233.166,236.469,242.25)" fill-rule="evenodd" transform="matrix(1,0.000276082,-0.000276082,1,230.027,54.0635)" />
			</g>
			<g id="Jul" clip-path="url(#clipPath_5)" customFrame="url(#clipPath_5)">
				<rect id="Jul" width="48.799999" height="206.000000" x="0.000000" y="0.000000" fill="rgb(255,255,255)" fill-opacity="0" transform="matrix(1,0.000276082,-0.000276082,1,155.607,54.043)" />
				<path id="Jul" d="M20.6298 3.13636L21.6866 3.13636L21.6866 9.375C21.6866 9.93182 21.5843 10.4048 21.3798 10.794C21.1752 11.1832 20.8869 11.4787 20.5147 11.6804C20.1425 11.8821 19.7036 11.983 19.1979 11.983C18.7207 11.983 18.296 11.8963 17.9238 11.723C17.5516 11.5469 17.259 11.2969 17.046 10.973C16.8329 10.6491 16.7263 10.2642 16.7263 9.81818L17.7661 9.81818C17.7661 10.0653 17.8272 10.2812 17.9494 10.4659C18.0744 10.6477 18.2448 10.7898 18.4607 10.892C18.6766 10.9943 18.9224 11.0455 19.1979 11.0455C19.5019 11.0455 19.7604 10.9815 19.9735 10.8537C20.1866 10.7259 20.3485 10.5384 20.4593 10.2912C20.5729 10.0412 20.6298 9.7358 20.6298 9.375L20.6298 3.13636ZM27.7931 9.1875L27.7931 5.31818L28.7988 5.31818L28.7988 11.8636L27.7931 11.8636L27.7931 10.7557L27.7249 10.7557C27.5715 11.0881 27.3329 11.3707 27.009 11.6037C26.6852 11.8338 26.2761 11.9489 25.7817 11.9489C25.3727 11.9489 25.009 11.8594 24.6908 11.6804C24.3727 11.4986 24.1227 11.2259 23.9408 10.8622C23.759 10.4957 23.6681 10.0341 23.6681 9.47727L23.6681 5.31818L24.6738 5.31818L24.6738 9.40909C24.6738 9.88636 24.8073 10.267 25.0744 10.5511C25.3442 10.8352 25.688 10.9773 26.1056 10.9773C26.3556 10.9773 26.6099 10.9134 26.8684 10.7855C27.1298 10.6577 27.3485 10.4616 27.5246 10.1974C27.7036 9.93324 27.7931 9.59659 27.7931 9.1875ZM31.6464 3.13636L31.6464 11.8636L30.6408 11.8636L30.6408 3.13636L31.6464 3.13636Z" fill="rgb(128,141,158)" fill-rule="nonzero" transform="matrix(1,0.000276082,-0.000276082,1,154.335,242.043)" />
				<path id="Shape" d="M0 183L5.20117e-14 0L2.44 0L2.44 183L0 183Z" fill="rgb(233.166,236.469,242.25)" fill-rule="evenodd" transform="matrix(1,0.000276082,-0.000276082,1,177.567,54.0491)" />
				<path id="Shape" d="M0 183L1.04023e-12 0L48.8 0L48.8 183L0 183Z" opacity="0.100000001" fill="url(#paint_linear_0)" fill-rule="evenodd" transform="matrix(1,0.000276082,-0.000276082,1,155.607,54.043)" />
			</g>
			<g id="Jun" clip-path="url(#clipPath_6)" customFrame="url(#clipPath_6)">
				<rect id="Jun" width="29.280001" height="206.000000" x="0.000000" y="0.000000" fill="rgb(255,255,255)" fill-opacity="0" transform="matrix(1,0.000276082,-0.000276082,1,114.127,54.0315)" />
				<path id="Jun" d="M8.78382 3.13636L9.84064 3.13636L9.84064 9.375C9.84064 9.93182 9.73837 10.4048 9.53382 10.794C9.32928 11.1832 9.04092 11.4787 8.66876 11.6804C8.29661 11.8821 7.85769 11.983 7.352 11.983C6.87473 11.983 6.45001 11.8963 6.07786 11.723C5.7057 11.5469 5.41308 11.2969 5.20001 10.973C4.98695 10.6491 4.88041 10.2642 4.88041 9.81818L5.92019 9.81818C5.92019 10.0653 5.98126 10.2812 6.10342 10.4659C6.22842 10.6477 6.39888 10.7898 6.61479 10.892C6.8307 10.9943 7.07644 11.0455 7.352 11.0455C7.65598 11.0455 7.9145 10.9815 8.12757 10.8537C8.34064 10.7259 8.50257 10.5384 8.61337 10.2912C8.727 10.0412 8.78382 9.7358 8.78382 9.375L8.78382 3.13636ZM15.9472 9.1875L15.9472 5.31818L16.9529 5.31818L16.9529 11.8636L15.9472 11.8636L15.9472 10.7557L15.879 10.7557C15.7256 11.0881 15.4869 11.3707 15.1631 11.6037C14.8392 11.8338 14.4301 11.9489 13.9358 11.9489C13.5267 11.9489 13.1631 11.8594 12.8449 11.6804C12.5267 11.4986 12.2767 11.2259 12.0949 10.8622C11.9131 10.4957 11.8222 10.0341 11.8222 9.47727L11.8222 5.31818L12.8279 5.31818L12.8279 9.40909C12.8279 9.88636 12.9614 10.267 13.2284 10.5511C13.4983 10.8352 13.8421 10.9773 14.2597 10.9773C14.5097 10.9773 14.7639 10.9134 15.0225 10.7855C15.2838 10.6577 15.5026 10.4616 15.6787 10.1974C15.8577 9.93324 15.9472 9.59659 15.9472 9.1875ZM19.8005 7.92614L19.8005 11.8636L18.7948 11.8636L18.7948 5.31818L19.7664 5.31818L19.7664 6.34091L19.8516 6.34091C20.0051 6.00852 20.238 5.74148 20.5505 5.53977C20.863 5.33523 21.2664 5.23295 21.7607 5.23295C22.2039 5.23295 22.5917 5.32386 22.9241 5.50568C23.2565 5.68466 23.515 5.95739 23.6997 6.32386C23.8843 6.6875 23.9766 7.14773 23.9766 7.70455L23.9766 11.8636L22.971 11.8636L22.971 7.77273C22.971 7.25852 22.8374 6.85795 22.5704 6.57102C22.3034 6.28125 21.9369 6.13636 21.471 6.13636C21.1499 6.13636 20.863 6.20597 20.6102 6.34517C20.3602 6.48437 20.1627 6.6875 20.0178 6.95455C19.873 7.22159 19.8005 7.54545 19.8005 7.92614Z" fill="rgb(128,141,158)" fill-rule="nonzero" transform="matrix(1,0.000276082,-0.000276082,1,113.465,242.031)" />
				<path id="Shape" d="M0 183L2.60059e-14 0L1.22 0L1.22 183L0 183Z" fill="rgb(233.166,236.469,242.25)" fill-rule="evenodd" transform="matrix(1,0.000276082,-0.000276082,1,129.987,54.0359)" />
			</g>
			<g id="May" clip-path="url(#clipPath_7)" customFrame="url(#clipPath_7)">
				<rect id="May" width="32.939999" height="206.000000" x="0.000000" y="0.000000" fill="rgb(255,255,255)" fill-opacity="0" transform="matrix(1,0.000276082,-0.000276082,1,56.7869,54.0156)" />
				<path id="May" d="M5.58541 3.13636L6.84678 3.13636L9.81268 10.3807L9.91496 10.3807L12.8809 3.13636L14.1422 3.13636L14.1422 11.8636L13.1536 11.8636L13.1536 5.23295L13.0684 5.23295L10.3411 11.8636L9.38655 11.8636L6.65928 5.23295L6.57405 5.23295L6.57405 11.8636L5.58541 11.8636L5.58541 3.13636ZM18.051 12.017C17.6362 12.017 17.2598 11.9389 16.9217 11.7827C16.5836 11.6236 16.3152 11.3949 16.1163 11.0966C15.9174 10.7955 15.818 10.4318 15.818 10.0057C15.818 9.63068 15.8919 9.3267 16.0396 9.09375C16.1873 8.85795 16.3848 8.6733 16.6319 8.53977C16.8791 8.40625 17.1518 8.30682 17.4501 8.24148C17.7512 8.1733 18.0538 8.11932 18.3578 8.07955C18.7555 8.02841 19.078 7.99006 19.3251 7.96449C19.5751 7.93608 19.7569 7.8892 19.8706 7.82386C19.987 7.75852 20.0453 7.64489 20.0453 7.48295L20.0453 7.44886C20.0453 7.02841 19.9302 6.7017 19.7001 6.46875C19.4728 6.2358 19.1277 6.11932 18.6646 6.11932C18.1845 6.11932 17.8081 6.22443 17.5353 6.43466C17.2626 6.64489 17.0709 6.86932 16.9601 7.10795L16.0055 6.76705C16.176 6.36932 16.4032 6.05966 16.6873 5.83807C16.9743 5.61364 17.2868 5.45739 17.6248 5.36932C17.9657 5.27841 18.301 5.23295 18.6305 5.23295C18.8407 5.23295 19.0822 5.25852 19.3549 5.30966C19.6305 5.35795 19.8961 5.45881 20.1518 5.61222C20.4103 5.76562 20.6248 5.99716 20.7953 6.30682C20.9657 6.61648 21.051 7.03125 21.051 7.55114L21.051 11.8636L20.0453 11.8636L20.0453 10.9773L19.9941 10.9773C19.926 11.1193 19.8123 11.2713 19.6532 11.4332C19.4941 11.5952 19.2825 11.733 19.0183 11.8466C18.7541 11.9602 18.4316 12.017 18.051 12.017ZM18.2044 11.1136C18.6021 11.1136 18.9373 11.0355 19.2101 10.8793C19.4856 10.723 19.693 10.5213 19.8322 10.2741C19.9743 10.027 20.0453 9.76705 20.0453 9.49432L20.0453 8.57386C20.0027 8.625 19.9089 8.67188 19.764 8.71449C19.622 8.75426 19.4572 8.78977 19.2697 8.82102C19.0851 8.84943 18.9047 8.875 18.7285 8.89773C18.5552 8.91761 18.4146 8.93466 18.3066 8.94886C18.0453 8.98295 17.801 9.03835 17.5737 9.11506C17.3493 9.18892 17.1674 9.30114 17.0282 9.4517C16.8919 9.59943 16.8237 9.80114 16.8237 10.0568C16.8237 10.4062 16.953 10.6705 17.2115 10.8494C17.4728 11.0256 17.8038 11.1136 18.2044 11.1136ZM23.2999 14.3182C23.1294 14.3182 22.9775 14.304 22.8439 14.2756C22.7104 14.25 22.6181 14.2244 22.5669 14.1989L22.8226 13.3125C23.0669 13.375 23.2829 13.3977 23.4704 13.3807C23.6579 13.3636 23.824 13.2798 23.9689 13.1293C24.1167 12.9815 24.2516 12.7415 24.3738 12.4091L24.5613 11.8977L22.1408 5.31818L23.2317 5.31818L25.0385 10.5341L25.1067 10.5341L26.9135 5.31818L28.0044 5.31818L25.226 12.8182C25.101 13.1562 24.9462 13.4361 24.7615 13.6577C24.5769 13.8821 24.3624 14.0483 24.1181 14.1562C23.8766 14.2642 23.6039 14.3182 23.2999 14.3182Z" fill="rgb(128,141,158)" fill-rule="nonzero" transform="matrix(1,0.000276082,-0.000276082,1,56.125,242.015)" />
				<path id="Shape" d="M0.0255497 183L0.0255497 0L1.24555 0L1.24555 183L0.0255497 183Z" fill="rgb(233.166,236.469,242.25)" fill-rule="evenodd" transform="matrix(1,0.000276082,-0.000276082,1,73.8669,54.0203)" />
			</g>
			<g id="Apr" clip-path="url(#clipPath_8)" customFrame="url(#clipPath_8)">
				<rect id="Apr" width="28.059999" height="206.000000" x="0.000000" y="0.000000" fill="rgb(255,255,255)" fill-opacity="0" transform="matrix(1,0.000276082,-0.000276082,1,4.32715,54.0012)" />
				<path id="Apr" d="M8.77632 3.32617L5.9521 11.1016L4.7978 11.1016L8.04975 2.57031L8.79389 2.57031L8.77632 3.32617ZM11.1435 11.1016L8.31343 3.32617L8.29585 2.57031L9.03999 2.57031L12.3037 11.1016L11.1435 11.1016ZM10.997 7.94336L10.997 8.86914L6.20405 8.86914L6.20405 7.94336L10.997 7.94336ZM14.4519 5.98047L14.4519 13.5391L13.362 13.5391L13.362 4.76172L14.3581 4.76172L14.4519 5.98047ZM18.7234 7.87891L18.7234 8.00195C18.7234 8.46289 18.6687 8.89062 18.5593 9.28516C18.4499 9.67578 18.2898 10.0156 18.0788 10.3047C17.8718 10.5938 17.6159 10.8184 17.3112 10.9785C17.0066 11.1387 16.657 11.2188 16.2624 11.2188C15.8601 11.2188 15.5046 11.1523 15.196 11.0195C14.8874 10.8867 14.6257 10.6934 14.4109 10.4395C14.196 10.1855 14.0241 9.88086 13.8952 9.52539C13.7702 9.16992 13.6843 8.76953 13.6374 8.32422L13.6374 7.66797C13.6843 7.19922 13.7722 6.7793 13.9011 6.4082C14.03 6.03711 14.1999 5.7207 14.4109 5.45898C14.6257 5.19336 14.8855 4.99219 15.1902 4.85547C15.4948 4.71484 15.8464 4.64453 16.2448 4.64453C16.6433 4.64453 16.9968 4.72266 17.3054 4.87891C17.614 5.03125 17.8737 5.25 18.0847 5.53516C18.2956 5.82031 18.4538 6.16211 18.5593 6.56055C18.6687 6.95508 18.7234 7.39453 18.7234 7.87891ZM17.6335 8.00195L17.6335 7.87891C17.6335 7.5625 17.6003 7.26562 17.5339 6.98828C17.4675 6.70703 17.364 6.46094 17.2234 6.25C17.0866 6.03516 16.9109 5.86719 16.696 5.74609C16.4812 5.62109 16.2253 5.55859 15.9284 5.55859C15.655 5.55859 15.4167 5.60547 15.2136 5.69922C15.0144 5.79297 14.8445 5.91992 14.7038 6.08008C14.5632 6.23633 14.448 6.41602 14.3581 6.61914C14.2722 6.81836 14.2077 7.02539 14.1648 7.24023L14.1648 8.75781C14.2429 9.03125 14.3523 9.28906 14.4929 9.53125C14.6335 9.76953 14.821 9.96289 15.0554 10.1113C15.2898 10.2559 15.5847 10.3281 15.9402 10.3281C16.2331 10.3281 16.4851 10.2676 16.696 10.1465C16.9109 10.0215 17.0866 9.85156 17.2234 9.63672C17.364 9.42188 17.4675 9.17578 17.5339 8.89844C17.6003 8.61719 17.6335 8.31836 17.6335 8.00195ZM21.2759 5.75781L21.2759 11.1016L20.1919 11.1016L20.1919 4.76172L21.2466 4.76172L21.2759 5.75781ZM23.2563 4.72656L23.2505 5.73438C23.1606 5.71484 23.0747 5.70312 22.9927 5.69922C22.9145 5.69141 22.8247 5.6875 22.7231 5.6875C22.4731 5.6875 22.2524 5.72656 22.061 5.80469C21.8696 5.88281 21.7075 5.99219 21.5747 6.13281C21.4419 6.27344 21.3364 6.44141 21.2583 6.63672C21.1841 6.82812 21.1352 7.03906 21.1118 7.26953L20.8071 7.44531C20.8071 7.0625 20.8442 6.70312 20.9184 6.36719C20.9966 6.03125 21.1157 5.73438 21.2759 5.47656C21.436 5.21484 21.6392 5.01172 21.8852 4.86719C22.1352 4.71875 22.4321 4.64453 22.7759 4.64453C22.854 4.64453 22.9438 4.6543 23.0454 4.67383C23.147 4.68945 23.2173 4.70703 23.2563 4.72656Z" fill="rgb(146.358,146.358,157.137)" fill-rule="nonzero" transform="matrix(1,0.000276082,-0.000276082,1,3.66846,230.257)" />
				<path id="Shape" d="M0.0255497 183L0.0255497 0L1.24555 0L1.24555 183L0.0255497 183Z" fill="rgb(241.19,241.19,245.299)" fill-rule="evenodd" transform="matrix(1,0.000276082,-0.000276082,1,18.9673,54.0051)" />
				<path id="Shape" d="M0.0255497 0L1.24555 0L1.24555 183L0.0255497 183L0.0255497 0Z" fill-rule="evenodd" stroke="rgb(150.96,150.96,150.96)" stroke-opacity="0" stroke-width="0" transform="matrix(1,0.000276082,-0.000276082,1,18.9673,54.0051)" />
			</g>
			<g id="Mar" clip-path="url(#clipPath_9)" customFrame="url(#clipPath_9)">
				<rect id="Mar" width="30.500000" height="206.000000" x="0.000000" y="0.000000" fill="rgb(255,255,255)" fill-opacity="0" transform="matrix(1,0.000276082,-0.000276082,1,-50.573,53.9861)" />
				<path id="Mar" d="M5.97679 2.57031L7.07249 2.57031L9.86741 9.52539L12.6565 2.57031L13.758 2.57031L10.2893 11.1016L9.43382 11.1016L5.97679 2.57031ZM5.61936 2.57031L6.58616 2.57031L6.74436 7.77344L6.74436 11.1016L5.61936 11.1016L5.61936 2.57031ZM13.1428 2.57031L14.1096 2.57031L14.1096 11.1016L12.9846 11.1016L12.9846 7.77344L13.1428 2.57031ZM19.7559 10.0176L19.7559 6.75391C19.7559 6.50391 19.7051 6.28711 19.6035 6.10352C19.5059 5.91602 19.3574 5.77148 19.1582 5.66992C18.959 5.56836 18.7129 5.51758 18.4199 5.51758C18.1465 5.51758 17.9062 5.56445 17.6992 5.6582C17.4961 5.75195 17.3359 5.875 17.2188 6.02734C17.1055 6.17969 17.0488 6.34375 17.0488 6.51953L15.9648 6.51953C15.9648 6.29297 16.0234 6.06836 16.1406 5.8457C16.2578 5.62305 16.4258 5.42188 16.6445 5.24219C16.8672 5.05859 17.1328 4.91406 17.4414 4.80859C17.7539 4.69922 18.1016 4.64453 18.4844 4.64453C18.9453 4.64453 19.3516 4.72266 19.7031 4.87891C20.0586 5.03516 20.3359 5.27148 20.5352 5.58789C20.7383 5.90039 20.8398 6.29297 20.8398 6.76562L20.8398 9.71875C20.8398 9.92969 20.8574 10.1543 20.8926 10.3926C20.9316 10.6309 20.9883 10.8359 21.0625 11.0078L21.0625 11.1016L19.9316 11.1016C19.877 10.9766 19.834 10.8105 19.8027 10.6035C19.7715 10.3926 19.7559 10.1973 19.7559 10.0176ZM19.9434 7.25781L19.9551 8.01953L18.8594 8.01953C18.5508 8.01953 18.2754 8.04492 18.0332 8.0957C17.791 8.14258 17.5879 8.21484 17.4238 8.3125C17.2598 8.41016 17.1348 8.5332 17.0488 8.68164C16.9629 8.82617 16.9199 8.99609 16.9199 9.19141C16.9199 9.39062 16.9648 9.57227 17.0547 9.73633C17.1445 9.90039 17.2793 10.0312 17.459 10.1289C17.6426 10.2227 17.8672 10.2695 18.1328 10.2695C18.4648 10.2695 18.7578 10.1992 19.0117 10.0586C19.2656 9.91797 19.4668 9.74609 19.6152 9.54297C19.7676 9.33984 19.8496 9.14258 19.8613 8.95117L20.3242 9.47266C20.2969 9.63672 20.2227 9.81836 20.1016 10.0176C19.9805 10.2168 19.8184 10.4082 19.6152 10.5918C19.416 10.7715 19.1777 10.9219 18.9004 11.043C18.627 11.1602 18.3184 11.2188 17.9746 11.2188C17.5449 11.2188 17.168 11.1348 16.8438 10.9668C16.5234 10.7988 16.2734 10.5742 16.0938 10.293C15.918 10.0078 15.8301 9.68945 15.8301 9.33789C15.8301 8.99805 15.8965 8.69922 16.0293 8.44141C16.1621 8.17969 16.3535 7.96289 16.6035 7.79102C16.8535 7.61523 17.1543 7.48242 17.5059 7.39258C17.8574 7.30273 18.25 7.25781 18.6836 7.25781L19.9434 7.25781ZM23.7146 5.75781L23.7146 11.1016L22.6306 11.1016L22.6306 4.76172L23.6853 4.76172L23.7146 5.75781ZM25.6951 4.72656L25.6892 5.73438C25.5994 5.71484 25.5134 5.70312 25.4314 5.69922C25.3533 5.69141 25.2634 5.6875 25.1619 5.6875C24.9119 5.6875 24.6912 5.72656 24.4998 5.80469C24.3084 5.88281 24.1463 5.99219 24.0134 6.13281C23.8806 6.27344 23.7752 6.44141 23.697 6.63672C23.6228 6.82812 23.574 7.03906 23.5506 7.26953L23.2459 7.44531C23.2459 7.0625 23.283 6.70312 23.3572 6.36719C23.4353 6.03125 23.5545 5.73438 23.7146 5.47656C23.8748 5.21484 24.0779 5.01172 24.324 4.86719C24.574 4.71875 24.8709 4.64453 25.2146 4.64453C25.2927 4.64453 25.3826 4.6543 25.4842 4.67383C25.5857 4.68945 25.656 4.70703 25.6951 4.72656Z" fill="rgb(146.358,146.358,157.137)" fill-rule="nonzero" transform="matrix(1,0.000276082,-0.000276082,1,-51.2317,230.242)" />
				<path id="Shape" d="M0.0255497 183L0.0255497 0L1.24555 0L1.24555 183L0.0255497 183Z" fill="rgb(241.19,241.19,245.299)" fill-rule="evenodd" transform="matrix(1,0.000276082,-0.000276082,1,-35.9331,53.99)" />
				<path id="Shape" d="M0.0255497 0L1.24555 0L1.24555 183L0.0255497 183L0.0255497 0Z" fill-rule="evenodd" stroke="rgb(150.96,150.96,150.96)" stroke-opacity="0" stroke-width="0" transform="matrix(1,0.000276082,-0.000276082,1,-35.9331,53.99)" />
			</g>
			<g id="Feb" clip-path="url(#clipPath_10)" customFrame="url(#clipPath_10)">
				<rect id="Feb" width="29.280001" height="206.000000" x="0.000000" y="0.000000" fill="rgb(255,255,255)" fill-opacity="0" transform="matrix(1,0.000276082,-0.000276082,1,-104.253,53.9712)" />
				<path id="Feb" d="M6.87265 2.57031L6.87265 11.1016L5.74179 11.1016L5.74179 2.57031L6.87265 2.57031ZM10.4469 6.4082L10.4469 7.33398L6.62655 7.33398L6.62655 6.4082L10.4469 6.4082ZM11.0269 2.57031L11.0269 3.49609L6.62655 3.49609L6.62655 2.57031L11.0269 2.57031ZM14.7982 11.2188C14.3568 11.2188 13.9564 11.1445 13.597 10.9961C13.2416 10.8438 12.9349 10.6309 12.6771 10.3574C12.4232 10.084 12.2279 9.75977 12.0912 9.38477C11.9545 9.00977 11.8861 8.59961 11.8861 8.1543L11.8861 7.9082C11.8861 7.39258 11.9623 6.93359 12.1146 6.53125C12.267 6.125 12.474 5.78125 12.7357 5.5C12.9974 5.21875 13.2943 5.00586 13.6263 4.86133C13.9584 4.7168 14.3021 4.64453 14.6576 4.64453C15.1107 4.64453 15.5013 4.72266 15.8295 4.87891C16.1615 5.03516 16.433 5.25391 16.6439 5.53516C16.8548 5.8125 17.0111 6.14062 17.1127 6.51953C17.2142 6.89453 17.265 7.30469 17.265 7.75L17.265 8.23633L12.5306 8.23633L12.5306 7.35156L16.181 7.35156L16.181 7.26953C16.1654 6.98828 16.1068 6.71484 16.0052 6.44922C15.9076 6.18359 15.7513 5.96484 15.5365 5.79297C15.3216 5.62109 15.0287 5.53516 14.6576 5.53516C14.4115 5.53516 14.1849 5.58789 13.9779 5.69336C13.7709 5.79492 13.5931 5.94727 13.4447 6.15039C13.2963 6.35352 13.181 6.60156 13.099 6.89453C13.017 7.1875 12.9759 7.52539 12.9759 7.9082L12.9759 8.1543C12.9759 8.45508 13.017 8.73828 13.099 9.00391C13.1849 9.26562 13.308 9.49609 13.4681 9.69531C13.6322 9.89453 13.8295 10.0508 14.0599 10.1641C14.2943 10.2773 14.5599 10.334 14.8568 10.334C15.2396 10.334 15.5638 10.2559 15.8295 10.0996C16.0951 9.94336 16.3275 9.73438 16.5267 9.47266L17.183 9.99414C17.0462 10.2012 16.8724 10.3984 16.6615 10.5859C16.4505 10.7734 16.1908 10.9258 15.8822 11.043C15.5775 11.1602 15.2162 11.2188 14.7982 11.2188ZM18.6105 2.10156L19.7003 2.10156L19.7003 9.87109L19.6066 11.1016L18.6105 11.1016L18.6105 2.10156ZM23.9835 7.87891L23.9835 8.00195C23.9835 8.46289 23.9288 8.89062 23.8195 9.28516C23.7101 9.67578 23.5499 10.0156 23.339 10.3047C23.1281 10.5938 22.8702 10.8184 22.5656 10.9785C22.2609 11.1387 21.9113 11.2188 21.5167 11.2188C21.1144 11.2188 20.7609 11.1504 20.4562 11.0137C20.1554 10.873 19.9015 10.6719 19.6945 10.4102C19.4874 10.1484 19.3214 9.83203 19.1964 9.46094C19.0753 9.08984 18.9913 8.67188 18.9445 8.20703L18.9445 7.66797C18.9913 7.19922 19.0753 6.7793 19.1964 6.4082C19.3214 6.03711 19.4874 5.7207 19.6945 5.45898C19.9015 5.19336 20.1554 4.99219 20.4562 4.85547C20.757 4.71484 21.1066 4.64453 21.505 4.64453C21.9035 4.64453 22.257 4.72266 22.5656 4.87891C22.8742 5.03125 23.132 5.25 23.339 5.53516C23.5499 5.82031 23.7101 6.16211 23.8195 6.56055C23.9288 6.95508 23.9835 7.39453 23.9835 7.87891ZM22.8937 8.00195L22.8937 7.87891C22.8937 7.5625 22.8644 7.26562 22.8058 6.98828C22.7472 6.70703 22.6535 6.46094 22.5245 6.25C22.3956 6.03516 22.2257 5.86719 22.0148 5.74609C21.8038 5.62109 21.5441 5.55859 21.2355 5.55859C20.962 5.55859 20.7238 5.60547 20.5206 5.69922C20.3214 5.79297 20.1515 5.91992 20.0109 6.08008C19.8702 6.23633 19.755 6.41602 19.6652 6.61914C19.5792 6.81836 19.5148 7.02539 19.4718 7.24023L19.4718 8.65234C19.5343 8.92578 19.6359 9.18945 19.7765 9.44336C19.921 9.69336 20.1124 9.89844 20.3507 10.0586C20.5929 10.2188 20.8917 10.2988 21.2472 10.2988C21.5402 10.2988 21.7902 10.2402 21.9972 10.123C22.2081 10.002 22.3781 9.83594 22.507 9.625C22.6398 9.41406 22.7374 9.16992 22.7999 8.89258C22.8624 8.61523 22.8937 8.31836 22.8937 8.00195Z" fill="rgb(146.358,146.358,157.137)" fill-rule="nonzero" transform="matrix(1,0.000276082,-0.000276082,1,-104.912,230.227)" />
				<path id="Shape" d="M0.0255497 183L0.0255497 0L1.24555 0L1.24555 183L0.0255497 183Z" fill="rgb(241.19,241.19,245.299)" fill-rule="evenodd" transform="matrix(1,0.000276082,-0.000276082,1,-88.3931,53.9756)" />
				<path id="Shape" d="M0.0255497 0L1.24555 0L1.24555 183L0.0255497 183L0.0255497 0Z" fill-rule="evenodd" stroke="rgb(150.96,150.96,150.96)" stroke-opacity="0" stroke-width="0" transform="matrix(1,0.000276082,-0.000276082,1,-88.3931,53.9756)" />
			</g>
			<g id="Jan" clip-path="url(#clipPath_11)" customFrame="url(#clipPath_11)">
				<rect id="Jan" width="29.280001" height="206.000000" x="0.000000" y="0.000000" fill="rgb(255,255,255)" fill-opacity="0" transform="matrix(1,0.000276082,-0.000276082,1,-157.933,53.9563)" />
				<path id="Jan" d="M9.23397 8.61133L9.23397 2.57031L10.359 2.57031L10.359 8.61133C10.359 9.17383 10.2437 9.64844 10.0133 10.0352C9.7828 10.4219 9.46444 10.7168 9.05819 10.9199C8.65585 11.1191 8.19296 11.2188 7.66952 11.2188C7.14608 11.2188 6.68124 11.1289 6.27499 10.9492C5.86874 10.7695 5.55038 10.4961 5.31991 10.1289C5.08944 9.76172 4.97421 9.29883 4.97421 8.74023L6.10507 8.74023C6.10507 9.09961 6.17147 9.39453 6.30429 9.625C6.4371 9.85547 6.62069 10.0254 6.85507 10.1348C7.09335 10.2441 7.36483 10.2988 7.66952 10.2988C7.9664 10.2988 8.23202 10.2363 8.4664 10.1113C8.70468 9.98242 8.89218 9.79297 9.0289 9.54297C9.16561 9.28906 9.23397 8.97852 9.23397 8.61133ZM15.9349 10.0176L15.9349 6.75391C15.9349 6.50391 15.8841 6.28711 15.7826 6.10352C15.6849 5.91602 15.5365 5.77148 15.3373 5.66992C15.138 5.56836 14.892 5.51758 14.599 5.51758C14.3255 5.51758 14.0853 5.56445 13.8783 5.6582C13.6752 5.75195 13.515 5.875 13.3978 6.02734C13.2845 6.17969 13.2279 6.34375 13.2279 6.51953L12.1439 6.51953C12.1439 6.29297 12.2025 6.06836 12.3197 5.8457C12.4369 5.62305 12.6048 5.42188 12.8236 5.24219C13.0463 5.05859 13.3119 4.91406 13.6205 4.80859C13.933 4.69922 14.2806 4.64453 14.6634 4.64453C15.1244 4.64453 15.5306 4.72266 15.8822 4.87891C16.2377 5.03516 16.515 5.27148 16.7142 5.58789C16.9173 5.90039 17.0189 6.29297 17.0189 6.76562L17.0189 9.71875C17.0189 9.92969 17.0365 10.1543 17.0716 10.3926C17.1107 10.6309 17.1673 10.8359 17.2416 11.0078L17.2416 11.1016L16.1107 11.1016C16.056 10.9766 16.013 10.8105 15.9818 10.6035C15.9505 10.3926 15.9349 10.1973 15.9349 10.0176ZM16.1224 7.25781L16.1341 8.01953L15.0384 8.01953C14.7298 8.01953 14.4545 8.04492 14.2123 8.0957C13.9701 8.14258 13.767 8.21484 13.6029 8.3125C13.4388 8.41016 13.3138 8.5332 13.2279 8.68164C13.142 8.82617 13.099 8.99609 13.099 9.19141C13.099 9.39062 13.1439 9.57227 13.2338 9.73633C13.3236 9.90039 13.4584 10.0312 13.638 10.1289C13.8216 10.2227 14.0463 10.2695 14.3119 10.2695C14.6439 10.2695 14.9369 10.1992 15.1908 10.0586C15.4447 9.91797 15.6459 9.74609 15.7943 9.54297C15.9466 9.33984 16.0287 9.14258 16.0404 8.95117L16.5033 9.47266C16.4759 9.63672 16.4017 9.81836 16.2806 10.0176C16.1595 10.2168 15.9974 10.4082 15.7943 10.5918C15.5951 10.7715 15.3568 10.9219 15.0795 11.043C14.806 11.1602 14.4974 11.2188 14.1537 11.2188C13.724 11.2188 13.347 11.1348 13.0228 10.9668C12.7025 10.7988 12.4525 10.5742 12.2728 10.293C12.097 10.0078 12.0091 9.68945 12.0091 9.33789C12.0091 8.99805 12.0755 8.69922 12.2084 8.44141C12.3412 8.17969 12.5326 7.96289 12.7826 7.79102C13.0326 7.61523 13.3334 7.48242 13.6849 7.39258C14.0365 7.30273 14.4291 7.25781 14.8627 7.25781L16.1224 7.25781ZM19.8937 6.11523L19.8937 11.1016L18.8097 11.1016L18.8097 4.76172L19.8351 4.76172L19.8937 6.11523ZM19.6359 7.69141L19.1847 7.67383C19.1886 7.24023 19.2531 6.83984 19.3781 6.47266C19.5031 6.10156 19.6788 5.7793 19.9054 5.50586C20.132 5.23242 20.4015 5.02148 20.714 4.87305C21.0304 4.7207 21.38 4.64453 21.7628 4.64453C22.0753 4.64453 22.3566 4.6875 22.6066 4.77344C22.8566 4.85547 23.0695 4.98828 23.2452 5.17188C23.4249 5.35547 23.5617 5.59375 23.6554 5.88672C23.7492 6.17578 23.796 6.5293 23.796 6.94727L23.796 11.1016L22.7062 11.1016L22.7062 6.93555C22.7062 6.60352 22.6574 6.33789 22.5597 6.13867C22.462 5.93555 22.3195 5.78906 22.132 5.69922C21.9445 5.60547 21.714 5.55859 21.4406 5.55859C21.171 5.55859 20.9249 5.61523 20.7023 5.72852C20.4835 5.8418 20.2941 5.99805 20.1339 6.19727C19.9777 6.39648 19.8546 6.625 19.7648 6.88281C19.6788 7.13672 19.6359 7.40625 19.6359 7.69141Z" fill="rgb(146.358,146.358,157.137)" fill-rule="nonzero" transform="matrix(1,0.000276082,-0.000276082,1,-158.592,230.212)" />
				<path id="Shape" d="M0.0255497 183L0.0255497 0L1.24555 0L1.24555 183L0.0255497 183Z" fill="rgb(241.19,241.19,245.299)" fill-rule="evenodd" transform="matrix(1,0.000276082,-0.000276082,1,-143.293,53.9604)" />
				<path id="Shape" d="M0.0255497 0L1.24555 0L1.24555 183L0.0255497 183L0.0255497 0Z" fill-rule="evenodd" stroke="rgb(150.96,150.96,150.96)" stroke-opacity="0" stroke-width="0" transform="matrix(1,0.000276082,-0.000276082,1,-143.293,53.9604)" />
			</g>
			<g id="Group 19595">
				<g filter="url(#filter_0)">
					<path id="Rectangle 2964" d="M12 0L60 0C66.6274 0 72 5.37258 72 12L72 26C72 32.6274 66.6274 38 60 38L0 38L0 12C0 5.37258 5.37258 0 12 0Z" fill="rgb(255,255,255)" fill-rule="nonzero" transform="matrix(1,0.000276082,-0.000276082,1,187.558,50.0518)" />
				</g>
				<path id="820" d="M4.52415 18.0873C3.78504 18.0873 3.12879 17.963 2.5554 17.7144C1.98532 17.4658 1.53788 17.1261 1.21307 16.6952C0.891572 16.261 0.732481 15.7688 0.735795 15.2186C0.732481 14.7911 0.825284 14.3983 1.0142 14.0404C1.20313 13.6824 1.45833 13.3841 1.77983 13.1455C2.10464 12.9035 2.46591 12.7494 2.86364 12.6831L2.86364 12.6135C2.33996 12.4975 1.91572 12.2307 1.59091 11.8131C1.26941 11.3922 1.11032 10.9066 1.11364 10.3564C1.11032 9.83276 1.25616 9.36543 1.55114 8.95444C1.84612 8.54346 2.25047 8.2203 2.7642 7.98498C3.27794 7.74635 3.86458 7.62703 4.52415 7.62703C5.17708 7.62703 5.75876 7.74635 6.26918 7.98498C6.78291 8.2203 7.18726 8.54346 7.48224 8.95444C7.78054 9.36543 7.92969 9.83276 7.92969 10.3564C7.92969 10.9066 7.76562 11.3922 7.4375 11.8131C7.11269 12.2307 6.69342 12.4975 6.17969 12.6135L6.17969 12.6831C6.57741 12.7494 6.93537 12.9035 7.25355 13.1455C7.57505 13.3841 7.83026 13.6824 8.01918 14.0404C8.21141 14.3983 8.30753 14.7911 8.30753 15.2186C8.30753 15.7688 8.14512 16.261 7.82031 16.6952C7.4955 17.1261 7.04806 17.4658 6.47798 17.7144C5.91122 17.963 5.25994 18.0873 4.52415 18.0873ZM4.52415 16.6654C4.9053 16.6654 5.23674 16.6007 5.51847 16.4715C5.80019 16.3389 6.01894 16.1533 6.17472 15.9147C6.33049 15.676 6.41004 15.4009 6.41335 15.0894C6.41004 14.7646 6.32552 14.4779 6.1598 14.2293C5.9974 13.9774 5.77367 13.7802 5.48864 13.6377C5.20691 13.4952 4.88542 13.4239 4.52415 13.4239C4.15956 13.4239 3.83475 13.4952 3.54972 13.6377C3.26468 13.7802 3.0393 13.9774 2.87358 14.2293C2.71117 14.4779 2.63163 14.7646 2.63494 15.0894C2.63163 15.4009 2.70786 15.676 2.86364 15.9147C3.01941 16.15 3.23816 16.3339 3.51989 16.4665C3.80492 16.5991 4.13968 16.6654 4.52415 16.6654ZM4.52415 12.0269C4.8357 12.0269 5.1108 11.9639 5.34943 11.838C5.59138 11.712 5.78196 11.5364 5.92116 11.311C6.06037 11.0856 6.13163 10.8254 6.13494 10.5304C6.13163 10.2388 6.06203 9.98356 5.92614 9.76481C5.79025 9.54275 5.60133 9.37206 5.35938 9.25274C5.11742 9.13011 4.83902 9.06879 4.52415 9.06879C4.20265 9.06879 3.91927 9.13011 3.67401 9.25274C3.43206 9.37206 3.24313 9.54275 3.10724 9.76481C2.97467 9.98356 2.91004 10.2388 2.91335 10.5304C2.91004 10.8254 2.97633 11.0856 3.11222 11.311C3.25142 11.533 3.442 11.7087 3.68395 11.838C3.92921 11.9639 4.20928 12.0269 4.52415 12.0269ZM9.94194 17.9481L9.94194 16.6157L13.4767 13.1505C13.8148 12.8091 14.0965 12.5058 14.3219 12.2407C14.5473 11.9755 14.7163 11.7186 14.829 11.4701C14.9417 11.2215 14.998 10.9563 14.998 10.6746C14.998 10.3531 14.9251 10.078 14.7793 9.84933C14.6335 9.61732 14.4329 9.43834 14.1777 9.3124C13.9225 9.18645 13.6325 9.12348 13.3077 9.12348C12.973 9.12348 12.6796 9.19308 12.4277 9.33228C12.1758 9.46817 11.9803 9.66207 11.8411 9.91396C11.7052 10.1659 11.6373 10.4658 11.6373 10.8138L9.88228 10.8138C9.88228 10.1675 10.0298 9.60572 10.3248 9.12845C10.6197 8.65118 11.0257 8.28162 11.5428 8.01978C12.0632 7.75795 12.6597 7.62703 13.3326 7.62703C14.0153 7.62703 14.6152 7.75463 15.1323 8.00984C15.6493 8.26505 16.0504 8.61472 16.3354 9.05885C16.6238 9.50298 16.7679 10.0101 16.7679 10.5802C16.7679 10.9613 16.695 11.3358 16.5492 11.7037C16.4034 12.0716 16.1465 12.4793 15.7786 12.9267C15.414 13.3742 14.9019 13.9161 14.2424 14.5525L12.4874 16.3373L12.4874 16.4069L16.9221 16.4069L16.9221 17.9481L9.94194 17.9481ZM22.4007 18.1419C21.5821 18.1419 20.8794 17.9348 20.2928 17.5205C19.7095 17.1029 19.2604 16.5013 18.9455 15.7158C18.6339 14.927 18.4782 13.9774 18.4782 12.8671C18.4815 11.7568 18.6389 10.8122 18.9505 10.0333C19.2653 9.25108 19.7144 8.65449 20.2978 8.24351C20.8844 7.83252 21.5854 7.62703 22.4007 7.62703C23.2161 7.62703 23.9171 7.83252 24.5037 8.24351C25.0904 8.65449 25.5395 9.25108 25.851 10.0333C26.1659 10.8155 26.3233 11.7601 26.3233 12.8671C26.3233 13.9807 26.1659 14.932 25.851 15.7208C25.5395 16.5063 25.0904 17.1062 24.5037 17.5205C23.9204 17.9348 23.2194 18.1419 22.4007 18.1419ZM22.4007 16.5858C23.0371 16.5858 23.5392 16.2726 23.9071 15.6462C24.2784 15.0165 24.464 14.0901 24.464 12.8671C24.464 12.0584 24.3794 11.3789 24.2104 10.8287C24.0414 10.2785 23.8027 9.86424 23.4945 9.58584C23.1863 9.30411 22.8217 9.16325 22.4007 9.16325C21.7677 9.16325 21.2672 9.47812 20.8993 10.1079C20.5314 10.7343 20.3458 11.654 20.3425 12.8671C20.3392 13.6791 20.4204 14.3619 20.5861 14.9154C20.7551 15.4689 20.9938 15.8865 21.302 16.1682C21.6103 16.4466 21.9765 16.5858 22.4007 16.5858Z" fill="rgb(29.2852,29.9259,37.1875)" fill-rule="nonzero" transform="matrix(1,0.000276082,-0.000276082,1,217.556,56.0601)" />
				<rect id="Rectangle 6945" width="10.000000" height="10.000000" x="0.000000" y="0.000000" rx="2.000000" fill="rgb(34,128.418,255)" transform="matrix(1,0.000276082,-0.000276082,1,198.554,64.1975)" />
			</g>
		</g>
		<g id="Graph">
			<path id="Vector 3" d="M0 59.8867C4.4988 61.733 15.1353 66.8793 21.6906 72.6948C29.8849 79.9643 56.3957 87.9261 72.3022 70.6179C88.2086 53.3096 95.4389 47.0786 107.007 47.0786C118.576 47.0786 126.288 44.6555 139.302 26.6549C152.317 8.65429 156.561 -0.0423617 172.561 0.000154616C188.029 0.0412572 195.858 10.7313 199.554 16.6161L208.23 30.1165C211.765 35.7706 221.269 45.347 235.184 46.3665C249.098 47.3861 259.796 42.2105 270.892 33.5782C281.226 25.5389 299.331 16.9623 314.755 33.5782C327.095 46.8709 333.393 51.5788 335 52.2711" stroke="rgb(34,128.418,255)" stroke-linecap="round" stroke-width="3" transform="matrix(1,0.000276082,-0.000276082,1,-9.45239,87.9973)" />
			<path id="Vector 4" d="M0 43.6212C5.21055 44.966 17.5298 48.7145 25.1223 52.9506C34.613 58.2456 65.318 64.045 83.741 51.4377C102.164 38.8304 110.538 34.2918 123.937 34.2918C137.335 34.2918 146.268 32.5268 161.341 19.4153C176.414 6.30374 181.331 -0.0308561 199.862 0.000112622C217.777 0.0300516 226.845 7.81661 231.125 12.1031L241.174 21.9367C245.268 26.0551 256.276 33.0305 272.392 33.7731C288.508 34.5158 300.898 30.7459 313.75 24.4582C325.718 18.6024 346.688 12.3552 364.553 24.4582C378.844 34.1406 386.139 37.5697 388 38.074" stroke="rgb(255,85.2698,85.2698)" stroke-linecap="round" stroke-width="3" transform="matrix(1,0.000276082,-0.000276082,1,-33.4587,110.991)" />
		</g>
	</g>
	<rect id="Rectangle" width="59.779999" height="203.000000" x="0.000000" y="0.000000" fill="rgb(255,255,255)" transform="matrix(1,0.000276082,-0.000276082,1,-0.552002,49.9998)" />
	<rect id="Rectangle" width="59.779999" height="203.000000" x="0.000000" y="0.000000" stroke="rgb(150.96,150.96,150.96)" stroke-opacity="0" stroke-width="0" transform="matrix(1,0.000276082,-0.000276082,1,-0.552002,49.9998)" />
	<g id="Value">
		<g id="Group 8" clip-path="url(#clipPath_12)" customFrame="url(#clipPath_12)">
			<rect id="Group 8" width="17.080000" height="24.000000" x="0.000000" y="0.000000" fill="rgb(255,255,255)" fill-opacity="0" transform="matrix(1,0.000276082,-0.000276082,1,10.4275,52.0029)" />
			<path id="1k" d="M3.97159 7.63636L3.97159 16.3636L2.91477 16.3636L2.91477 8.74432L2.86364 8.74432L0.732955 10.1591L0.732955 9.08523L2.91477 7.63636L3.97159 7.63636ZM7.52179 13.9773L7.50475 12.733L7.70929 12.733L10.5729 9.81818L11.8172 9.81818L8.76611 12.9034L8.68089 12.9034L7.52179 13.9773ZM6.58429 16.3636L6.58429 7.63636L7.58998 7.63636L7.58998 16.3636L6.58429 16.3636ZM10.7434 16.3636L8.18657 13.125L8.90248 12.4261L12.0218 16.3636L10.7434 16.3636Z" fill="rgb(128,141,158)" fill-rule="nonzero" transform="matrix(1,0.000276082,-0.000276082,1,11.0376,52.0032)" />
		</g>
		<g id="Group 8 Copy 9" clip-path="url(#clipPath_13)" customFrame="url(#clipPath_13)">
			<rect id="Group 8 Copy 9" width="10.980000" height="24.000000" x="0.000000" y="0.000000" fill="rgb(255,255,255)" fill-opacity="0" transform="matrix(1,0.000276082,-0.000276082,1,17.7004,222.005)" />
			<path id="0" d="M3.75 16.483C3.10795 16.483 2.56108 16.3082 2.10938 15.9588C1.65767 15.6065 1.3125 15.0966 1.07386 14.429C0.835227 13.7585 0.715909 12.9489 0.715909 12C0.715909 11.0568 0.835227 10.2514 1.07386 9.58381C1.31534 8.91335 1.66193 8.40199 2.11364 8.04972C2.56818 7.6946 3.11364 7.51705 3.75 7.51705C4.38636 7.51705 4.9304 7.6946 5.3821 8.04972C5.83665 8.40199 6.18324 8.91335 6.42188 9.58381C6.66335 10.2514 6.78409 11.0568 6.78409 12C6.78409 12.9489 6.66477 13.7585 6.42614 14.429C6.1875 15.0966 5.84233 15.6065 5.39062 15.9588C4.93892 16.3082 4.39205 16.483 3.75 16.483ZM3.75 15.5455C4.38636 15.5455 4.88068 15.2386 5.23295 14.625C5.58523 14.0114 5.76136 13.1364 5.76136 12C5.76136 11.2443 5.6804 10.6009 5.51847 10.0696C5.35938 9.53835 5.12926 9.13352 4.82812 8.85511C4.52983 8.5767 4.17045 8.4375 3.75 8.4375C3.11932 8.4375 2.62642 8.74858 2.27131 9.37074C1.91619 9.99006 1.73864 10.8665 1.73864 12C1.73864 12.7557 1.81818 13.3977 1.97727 13.9261C2.13636 14.4545 2.36506 14.8565 2.66335 15.1321C2.96449 15.4077 3.3267 15.5455 3.75 15.5455Z" fill="rgb(128,141,158)" fill-rule="nonzero" transform="matrix(1,0.000276082,-0.000276082,1,18.3105,222.005)" />
		</g>
		<g id="Group 8 Copy 10" clip-path="url(#clipPath_14)" customFrame="url(#clipPath_14)">
			<rect id="Group 8 Copy 10" width="29.280001" height="24.000000" x="0.000000" y="0.000000" fill="rgb(255,255,255)" fill-opacity="0" transform="matrix(1,0.000276082,-0.000276082,1,-0.590088,188)" />
			<path id="200" d="M0.903409 16.3636L0.903409 15.5966L3.78409 12.4432C4.12216 12.0739 4.40057 11.7528 4.61932 11.4801C4.83807 11.2045 5 10.946 5.10511 10.7045C5.21307 10.4602 5.26705 10.2045 5.26705 9.9375C5.26705 9.63068 5.19318 9.36506 5.04545 9.14062C4.90057 8.91619 4.7017 8.7429 4.44886 8.62074C4.19602 8.49858 3.91193 8.4375 3.59659 8.4375C3.26136 8.4375 2.96875 8.5071 2.71875 8.64631C2.47159 8.78267 2.27983 8.97443 2.14347 9.22159C2.00994 9.46875 1.94318 9.75852 1.94318 10.0909L0.9375 10.0909C0.9375 9.57955 1.0554 9.13068 1.29119 8.74432C1.52699 8.35795 1.84801 8.05682 2.25426 7.84091C2.66335 7.625 3.12216 7.51705 3.63068 7.51705C4.14205 7.51705 4.59517 7.625 4.99006 7.84091C5.38494 8.05682 5.6946 8.34801 5.91903 8.71449C6.14347 9.08097 6.25568 9.48864 6.25568 9.9375C6.25568 10.2585 6.19744 10.5724 6.08097 10.8793C5.96733 11.1832 5.76847 11.5227 5.48438 11.8977C5.20312 12.2699 4.8125 12.7244 4.3125 13.2614L2.35227 15.358L2.35227 15.4261L6.40909 15.4261L6.40909 16.3636L0.903409 16.3636ZM11.1013 16.483C10.4593 16.483 9.91242 16.3082 9.46071 15.9588C9.00901 15.6065 8.66384 15.0966 8.4252 14.429C8.18657 13.7585 8.06725 12.9489 8.06725 12C8.06725 11.0568 8.18657 10.2514 8.4252 9.58381C8.66668 8.91335 9.01327 8.40199 9.46498 8.04972C9.91952 7.6946 10.465 7.51705 11.1013 7.51705C11.7377 7.51705 12.2817 7.6946 12.7334 8.04972C13.188 8.40199 13.5346 8.91335 13.7732 9.58381C14.0147 10.2514 14.1354 11.0568 14.1354 12C14.1354 12.9489 14.0161 13.7585 13.7775 14.429C13.5388 15.0966 13.1937 15.6065 12.742 15.9588C12.2903 16.3082 11.7434 16.483 11.1013 16.483ZM11.1013 15.5455C11.7377 15.5455 12.232 15.2386 12.5843 14.625C12.9366 14.0114 13.1127 13.1364 13.1127 12C13.1127 11.2443 13.0317 10.6009 12.8698 10.0696C12.7107 9.53835 12.4806 9.13352 12.1795 8.85511C11.8812 8.5767 11.5218 8.4375 11.1013 8.4375C10.4707 8.4375 9.97776 8.74858 9.62265 9.37074C9.26753 9.99006 9.08998 10.8665 9.08998 12C9.08998 12.7557 9.16952 13.3977 9.32861 13.9261C9.4877 14.4545 9.7164 14.8565 10.0147 15.1321C10.3158 15.4077 10.678 15.5455 11.1013 15.5455ZM18.6871 16.483C18.045 16.483 17.4981 16.3082 17.0464 15.9588C16.5947 15.6065 16.2496 15.0966 16.0109 14.429C15.7723 13.7585 15.653 12.9489 15.653 12C15.653 11.0568 15.7723 10.2514 16.0109 9.58381C16.2524 8.91335 16.599 8.40199 17.0507 8.04972C17.5052 7.6946 18.0507 7.51705 18.6871 7.51705C19.3234 7.51705 19.8675 7.6946 20.3192 8.04972C20.7737 8.40199 21.1203 8.91335 21.3589 9.58381C21.6004 10.2514 21.7211 11.0568 21.7211 12C21.7211 12.9489 21.6018 13.7585 21.3632 14.429C21.1246 15.0966 20.7794 15.6065 20.3277 15.9588C19.876 16.3082 19.3291 16.483 18.6871 16.483ZM18.6871 15.5455C19.3234 15.5455 19.8177 15.2386 20.17 14.625C20.5223 14.0114 20.6984 13.1364 20.6984 12C20.6984 11.2443 20.6175 10.6009 20.4555 10.0696C20.2964 9.53835 20.0663 9.13352 19.7652 8.85511C19.4669 8.5767 19.1075 8.4375 18.6871 8.4375C18.0564 8.4375 17.5635 8.74858 17.2084 9.37074C16.8532 9.99006 16.6757 10.8665 16.6757 12C16.6757 12.7557 16.7552 13.3977 16.9143 13.9261C17.0734 14.4545 17.3021 14.8565 17.6004 15.1321C17.9015 15.4077 18.2638 15.5455 18.6871 15.5455Z" fill="rgb(128,141,158)" fill-rule="nonzero" transform="matrix(1,0.000276082,-0.000276082,1,1.23999,188)" />
		</g>
		<g id="Group 8 Copy 3" clip-path="url(#clipPath_15)" customFrame="url(#clipPath_15)">
			<rect id="Group 8 Copy 3" width="29.280001" height="24.000000" x="0.000000" y="0.000000" fill="rgb(255,255,255)" fill-opacity="0" transform="matrix(1,0.000276082,-0.000276082,1,-0.580566,154)" />
			<path id="400" d="M0.698864 14.5739L0.698864 13.7045L4.53409 7.63636L5.16477 7.63636L5.16477 8.98295L4.73864 8.98295L1.84091 13.5682L1.84091 13.6364L7.00568 13.6364L7.00568 14.5739L0.698864 14.5739ZM4.80682 16.3636L4.80682 14.3097L4.80682 13.9048L4.80682 7.63636L5.8125 7.63636L5.8125 16.3636L4.80682 16.3636ZM11.5349 16.483C10.8929 16.483 10.346 16.3082 9.89431 15.9588C9.4426 15.6065 9.09743 15.0966 8.8588 14.429C8.62016 13.7585 8.50084 12.9489 8.50084 12C8.50084 11.0568 8.62016 10.2514 8.8588 9.58381C9.10027 8.91335 9.44687 8.40199 9.89857 8.04972C10.3531 7.6946 10.8986 7.51705 11.5349 7.51705C12.1713 7.51705 12.7153 7.6946 13.167 8.04972C13.6216 8.40199 13.9682 8.91335 14.2068 9.58381C14.4483 10.2514 14.569 11.0568 14.569 12C14.569 12.9489 14.4497 13.7585 14.2111 14.429C13.9724 15.0966 13.6273 15.6065 13.1756 15.9588C12.7239 16.3082 12.177 16.483 11.5349 16.483ZM11.5349 15.5455C12.1713 15.5455 12.6656 15.2386 13.0179 14.625C13.3702 14.0114 13.5463 13.1364 13.5463 12C13.5463 11.2443 13.4653 10.6009 13.3034 10.0696C13.1443 9.53835 12.9142 9.13352 12.6131 8.85511C12.3148 8.5767 11.9554 8.4375 11.5349 8.4375C10.9043 8.4375 10.4114 8.74858 10.0562 9.37074C9.70113 9.99006 9.52357 10.8665 9.52357 12C9.52357 12.7557 9.60312 13.3977 9.76221 13.9261C9.9213 14.4545 10.15 14.8565 10.4483 15.1321C10.7494 15.4077 11.1116 15.5455 11.5349 15.5455ZM19.1206 16.483C18.4786 16.483 17.9317 16.3082 17.48 15.9588C17.0283 15.6065 16.6831 15.0966 16.4445 14.429C16.2059 13.7585 16.0866 12.9489 16.0866 12C16.0866 11.0568 16.2059 10.2514 16.4445 9.58381C16.686 8.91335 17.0326 8.40199 17.4843 8.04972C17.9388 7.6946 18.4843 7.51705 19.1206 7.51705C19.757 7.51705 20.301 7.6946 20.7528 8.04972C21.2073 8.40199 21.5539 8.91335 21.7925 9.58381C22.034 10.2514 22.1547 11.0568 22.1547 12C22.1547 12.9489 22.0354 13.7585 21.7968 14.429C21.5581 15.0966 21.213 15.6065 20.7613 15.9588C20.3096 16.3082 19.7627 16.483 19.1206 16.483ZM19.1206 15.5455C19.757 15.5455 20.2513 15.2386 20.6036 14.625C20.9559 14.0114 21.132 13.1364 21.132 12C21.132 11.2443 21.051 10.6009 20.8891 10.0696C20.73 9.53835 20.4999 9.13352 20.1988 8.85511C19.9005 8.5767 19.5411 8.4375 19.1206 8.4375C18.49 8.4375 17.9971 8.74858 17.642 9.37074C17.2868 9.99006 17.1093 10.8665 17.1093 12C17.1093 12.7557 17.1888 13.3977 17.3479 13.9261C17.507 14.4545 17.7357 14.8565 18.034 15.1321C18.3351 15.4077 18.6974 15.5455 19.1206 15.5455Z" fill="rgb(128,141,158)" fill-rule="nonzero" transform="matrix(1,0.000276082,-0.000276082,1,1.24927,154)" />
		</g>
		<g id="Group 8 Copy 5" clip-path="url(#clipPath_16)" customFrame="url(#clipPath_16)">
			<rect id="Group 8 Copy 5" width="29.280001" height="24.000000" x="0.000000" y="0.000000" fill="rgb(255,255,255)" fill-opacity="0" transform="matrix(1,0.000276082,-0.000276082,1,-0.571289,120)" />
			<path id="600" d="M3.80114 16.483C3.44318 16.4773 3.08523 16.4091 2.72727 16.2784C2.36932 16.1477 2.04261 15.9276 1.74716 15.6179C1.4517 15.3054 1.21449 14.8835 1.03551 14.3523C0.856534 13.8182 0.767045 13.1477 0.767045 12.3409C0.767045 11.5682 0.839489 10.8835 0.984375 10.2869C1.12926 9.6875 1.33949 9.18324 1.61506 8.77415C1.89063 8.36222 2.22301 8.04972 2.61222 7.83665C3.00426 7.62358 3.44602 7.51705 3.9375 7.51705C4.42614 7.51705 4.8608 7.61506 5.24148 7.81108C5.625 8.00426 5.9375 8.27415 6.17898 8.62074C6.42045 8.96733 6.5767 9.36648 6.64773 9.81818L5.60795 9.81818C5.51136 9.42614 5.32386 9.10085 5.04545 8.84233C4.76705 8.58381 4.39773 8.45455 3.9375 8.45455C3.26136 8.45455 2.72869 8.74858 2.33949 9.33665C1.95312 9.92472 1.75852 10.75 1.75568 11.8125L1.82386 11.8125C1.98295 11.571 2.17188 11.3651 2.39062 11.1946C2.61222 11.0213 2.85653 10.8878 3.12358 10.794C3.39062 10.7003 3.6733 10.6534 3.97159 10.6534C4.47159 10.6534 4.92898 10.7784 5.34375 11.0284C5.75852 11.2756 6.09091 11.6179 6.34091 12.0554C6.59091 12.4901 6.71591 12.9886 6.71591 13.5511C6.71591 14.0909 6.59517 14.5852 6.35369 15.0341C6.11222 15.4801 5.77273 15.8352 5.33523 16.0994C4.90057 16.3608 4.3892 16.4886 3.80114 16.483ZM3.80114 15.5455C4.15909 15.5455 4.48011 15.456 4.7642 15.277C5.05114 15.098 5.27699 14.858 5.44176 14.5568C5.60938 14.2557 5.69318 13.9205 5.69318 13.5511C5.69318 13.1903 5.61222 12.8622 5.45028 12.5668C5.29119 12.2685 5.07102 12.0312 4.78977 11.8551C4.51136 11.679 4.19318 11.5909 3.83523 11.5909C3.56534 11.5909 3.31392 11.6449 3.08097 11.7528C2.84801 11.858 2.64347 12.0028 2.46733 12.1875C2.29403 12.3722 2.15767 12.5838 2.05824 12.8224C1.95881 13.0582 1.90909 13.3068 1.90909 13.5682C1.90909 13.9148 1.99006 14.2386 2.15199 14.5398C2.31676 14.8409 2.54119 15.0838 2.82528 15.2685C3.11222 15.4531 3.4375 15.5455 3.80114 15.5455ZM11.324 16.483C10.6819 16.483 10.1351 16.3082 9.68337 15.9588C9.23167 15.6065 8.8865 15.0966 8.64786 14.429C8.40922 13.7585 8.2899 12.9489 8.2899 12C8.2899 11.0568 8.40922 10.2514 8.64786 9.58381C8.88934 8.91335 9.23593 8.40199 9.68763 8.04972C10.1422 7.6946 10.6876 7.51705 11.324 7.51705C11.9604 7.51705 12.5044 7.6946 12.9561 8.04972C13.4106 8.40199 13.7572 8.91335 13.9959 9.58381C14.2373 10.2514 14.3581 11.0568 14.3581 12C14.3581 12.9489 14.2388 13.7585 14.0001 14.429C13.7615 15.0966 13.4163 15.6065 12.9646 15.9588C12.5129 16.3082 11.966 16.483 11.324 16.483ZM11.324 15.5455C11.9604 15.5455 12.4547 15.2386 12.807 14.625C13.1592 14.0114 13.3354 13.1364 13.3354 12C13.3354 11.2443 13.2544 10.6009 13.0925 10.0696C12.9334 9.53835 12.7033 9.13352 12.4021 8.85511C12.1038 8.5767 11.7445 8.4375 11.324 8.4375C10.6933 8.4375 10.2004 8.74858 9.8453 9.37074C9.49019 9.99006 9.31263 10.8665 9.31263 12C9.31263 12.7557 9.39218 13.3977 9.55127 13.9261C9.71036 14.4545 9.93905 14.8565 10.2373 15.1321C10.5385 15.4077 10.9007 15.5455 11.324 15.5455ZM18.9097 16.483C18.2677 16.483 17.7208 16.3082 17.2691 15.9588C16.8174 15.6065 16.4722 15.0966 16.2336 14.429C15.9949 13.7585 15.8756 12.9489 15.8756 12C15.8756 11.0568 15.9949 10.2514 16.2336 9.58381C16.4751 8.91335 16.8216 8.40199 17.2733 8.04972C17.7279 7.6946 18.2733 7.51705 18.9097 7.51705C19.5461 7.51705 20.0901 7.6946 20.5418 8.04972C20.9964 8.40199 21.3429 8.91335 21.5816 9.58381C21.8231 10.2514 21.9438 11.0568 21.9438 12C21.9438 12.9489 21.8245 13.7585 21.5858 14.429C21.3472 15.0966 21.002 15.6065 20.5503 15.9588C20.0986 16.3082 19.5518 16.483 18.9097 16.483ZM18.9097 15.5455C19.5461 15.5455 20.0404 15.2386 20.3927 14.625C20.7449 14.0114 20.9211 13.1364 20.9211 12C20.9211 11.2443 20.8401 10.6009 20.6782 10.0696C20.5191 9.53835 20.289 9.13352 19.9878 8.85511C19.6895 8.5767 19.3302 8.4375 18.9097 8.4375C18.279 8.4375 17.7861 8.74858 17.431 9.37074C17.0759 9.99006 16.8983 10.8665 16.8983 12C16.8983 12.7557 16.9779 13.3977 17.137 13.9261C17.2961 14.4545 17.5248 14.8565 17.8231 15.1321C18.1242 15.4077 18.4864 15.5455 18.9097 15.5455Z" fill="rgb(128,141,158)" fill-rule="nonzero" transform="matrix(1,0.000276082,-0.000276082,1,1.25879,120)" />
		</g>
		<g id="Group 8 Copy 7" clip-path="url(#clipPath_17)" customFrame="url(#clipPath_17)">
			<rect id="Group 8 Copy 7" width="29.280001" height="24.000000" x="0.000000" y="0.000000" fill="rgb(255,255,255)" fill-opacity="0" transform="matrix(1,0.000276082,-0.000276082,1,-0.561768,85.9998)" />
			<path id="800" d="M3.69886 16.483C3.11364 16.483 2.59659 16.3793 2.14773 16.1719C1.7017 15.9616 1.35369 15.6733 1.10369 15.3068C0.853693 14.9375 0.730114 14.517 0.732955 14.0455C0.730114 13.6761 0.802557 13.3352 0.950284 13.0227C1.09801 12.7074 1.29972 12.4446 1.5554 12.2344C1.81392 12.0213 2.10227 11.8864 2.42045 11.8295L2.42045 11.7784C2.00284 11.6705 1.67045 11.4361 1.4233 11.0753C1.17614 10.7116 1.05398 10.2983 1.05682 9.83523C1.05398 9.39205 1.16619 8.99574 1.39347 8.64631C1.62074 8.29688 1.93324 8.02131 2.33097 7.8196C2.73153 7.6179 3.1875 7.51705 3.69886 7.51705C4.20455 7.51705 4.65625 7.6179 5.05398 7.8196C5.4517 8.02131 5.7642 8.29688 5.99148 8.64631C6.22159 8.99574 6.33807 9.39205 6.34091 9.83523C6.33807 10.2983 6.21165 10.7116 5.96165 11.0753C5.71449 11.4361 5.38636 11.6705 4.97727 11.7784L4.97727 11.8295C5.29261 11.8864 5.5767 12.0213 5.82955 12.2344C6.08239 12.4446 6.28409 12.7074 6.43466 13.0227C6.58523 13.3352 6.66193 13.6761 6.66477 14.0455C6.66193 14.517 6.53409 14.9375 6.28125 15.3068C6.03125 15.6733 5.68324 15.9616 5.23722 16.1719C4.79403 16.3793 4.28125 16.483 3.69886 16.483ZM3.69886 15.5455C4.09375 15.5455 4.43466 15.4815 4.72159 15.3537C5.00852 15.2259 5.23011 15.0455 5.38636 14.8125C5.54261 14.5795 5.62216 14.3068 5.625 13.9943C5.62216 13.6648 5.53693 13.3736 5.36932 13.1207C5.2017 12.8679 4.97301 12.669 4.68324 12.5241C4.39631 12.3793 4.06818 12.3068 3.69886 12.3068C3.3267 12.3068 2.99432 12.3793 2.7017 12.5241C2.41193 12.669 2.18324 12.8679 2.01562 13.1207C1.85085 13.3736 1.76989 13.6648 1.77273 13.9943C1.76989 14.3068 1.84517 14.5795 1.99858 14.8125C2.15483 15.0455 2.37784 15.2259 2.66761 15.3537C2.95739 15.4815 3.30114 15.5455 3.69886 15.5455ZM3.69886 11.4034C4.01136 11.4034 4.28835 11.3409 4.52983 11.2159C4.77415 11.0909 4.96591 10.9162 5.10511 10.6918C5.24432 10.4673 5.31534 10.2045 5.31818 9.90341C5.31534 9.60795 5.24574 9.35085 5.10938 9.1321C4.97301 8.91051 4.78409 8.74006 4.54261 8.62074C4.30114 8.49858 4.01989 8.4375 3.69886 8.4375C3.37216 8.4375 3.08665 8.49858 2.84233 8.62074C2.59801 8.74006 2.40909 8.91051 2.27557 9.1321C2.14205 9.35085 2.0767 9.60795 2.07955 9.90341C2.0767 10.2045 2.14347 10.4673 2.27983 10.6918C2.41903 10.9162 2.6108 11.0909 2.85511 11.2159C3.09943 11.3409 3.38068 11.4034 3.69886 11.4034ZM11.2302 16.483C10.5882 16.483 10.0413 16.3082 9.58962 15.9588C9.13792 15.6065 8.79275 15.0966 8.55411 14.429C8.31547 13.7585 8.19615 12.9489 8.19615 12C8.19615 11.0568 8.31547 10.2514 8.55411 9.58381C8.79559 8.91335 9.14218 8.40199 9.59388 8.04972C10.0484 7.6946 10.5939 7.51705 11.2302 7.51705C11.8666 7.51705 12.4106 7.6946 12.8623 8.04972C13.3169 8.40199 13.6635 8.91335 13.9021 9.58381C14.1436 10.2514 14.2643 11.0568 14.2643 12C14.2643 12.9489 14.145 13.7585 13.9064 14.429C13.6677 15.0966 13.3226 15.6065 12.8709 15.9588C12.4192 16.3082 11.8723 16.483 11.2302 16.483ZM11.2302 15.5455C11.8666 15.5455 12.3609 15.2386 12.7132 14.625C13.0655 14.0114 13.2416 13.1364 13.2416 12C13.2416 11.2443 13.1606 10.6009 12.9987 10.0696C12.8396 9.53835 12.6095 9.13352 12.3084 8.85511C12.0101 8.5767 11.6507 8.4375 11.2302 8.4375C10.5996 8.4375 10.1067 8.74858 9.75155 9.37074C9.39644 9.99006 9.21888 10.8665 9.21888 12C9.21888 12.7557 9.29843 13.3977 9.45752 13.9261C9.61661 14.4545 9.8453 14.8565 10.1436 15.1321C10.4447 15.4077 10.8069 15.5455 11.2302 15.5455ZM18.816 16.483C18.1739 16.483 17.627 16.3082 17.1753 15.9588C16.7236 15.6065 16.3785 15.0966 16.1398 14.429C15.9012 13.7585 15.7819 12.9489 15.7819 12C15.7819 11.0568 15.9012 10.2514 16.1398 9.58381C16.3813 8.91335 16.7279 8.40199 17.1796 8.04972C17.6341 7.6946 18.1796 7.51705 18.816 7.51705C19.4523 7.51705 19.9964 7.6946 20.4481 8.04972C20.9026 8.40199 21.2492 8.91335 21.4878 9.58381C21.7293 10.2514 21.8501 11.0568 21.8501 12C21.8501 12.9489 21.7307 13.7585 21.4921 14.429C21.2535 15.0966 20.9083 15.6065 20.4566 15.9588C20.0049 16.3082 19.458 16.483 18.816 16.483ZM18.816 15.5455C19.4523 15.5455 19.9466 15.2386 20.2989 14.625C20.6512 14.0114 20.8273 13.1364 20.8273 12C20.8273 11.2443 20.7464 10.6009 20.5844 10.0696C20.4253 9.53835 20.1952 9.13352 19.8941 8.85511C19.5958 8.5767 19.2364 8.4375 18.816 8.4375C18.1853 8.4375 17.6924 8.74858 17.3373 9.37074C16.9822 9.99006 16.8046 10.8665 16.8046 12C16.8046 12.7557 16.8841 13.3977 17.0432 13.9261C17.2023 14.4545 17.431 14.8565 17.7293 15.1321C18.0304 15.4077 18.3927 15.5455 18.816 15.5455Z" fill="rgb(128,141,158)" fill-rule="nonzero" transform="matrix(1,0.000276082,-0.000276082,1,1.26807,86.0002)" />
		</g>
	</g>
	<g id="Selector">
		<g filter="url(#filter_1)">
			<rect id="Selector" width="14.000000" height="14.000000" x="0.000000" y="0.000000" rx="7.000000" fill="rgb(34,128.418,255)" transform="matrix(1,0.000276082,-0.000276082,1,171.549,84.0474)" />
			<rect id="Selector" width="12.000000" height="12.000000" x="1.000000" y="1.000000" rx="6.000000" stroke="rgb(255,255,255)" stroke-width="2" transform="matrix(1,0.000276082,-0.000276082,1,171.549,84.0474)" />
		</g>
	</g>
	<g id="2">
		<rect id="Shape" width="12.200000" height="10.000000" x="0.000000" y="0.000000" rx="2.000000" fill="rgb(255,85.2698,85.2698)" transform="matrix(1,0.000276082,-0.000276082,1,169.038,15.0466)" />
		<path id="Cases Sales" d="M9.42614 9.09091L8.19318 9.09091C8.12027 8.73627 7.99266 8.42472 7.81037 8.15625C7.63139 7.88778 7.41264 7.66241 7.15412 7.48011C6.89891 7.29451 6.61553 7.1553 6.30398 7.0625C5.99242 6.9697 5.66761 6.9233 5.32955 6.9233C4.71307 6.9233 4.15459 7.07907 3.65412 7.39063C3.15696 7.70218 2.76089 8.16122 2.46591 8.76776C2.17424 9.37429 2.02841 10.1184 2.02841 11C2.02841 11.8816 2.17424 12.6257 2.46591 13.2322C2.76089 13.8388 3.15696 14.2978 3.65412 14.6094C4.15459 14.9209 4.71307 15.0767 5.32955 15.0767C5.66761 15.0767 5.99242 15.0303 6.30398 14.9375C6.61553 14.8447 6.89891 14.7072 7.15412 14.5249C7.41264 14.3393 7.63139 14.1122 7.81037 13.8438C7.99266 13.572 8.12027 13.2604 8.19318 12.9091L9.42614 12.9091C9.33333 13.4295 9.1643 13.8951 8.91903 14.3061C8.67377 14.7171 8.36885 15.0668 8.00426 15.3551C7.63968 15.6402 7.23035 15.8572 6.77628 16.0064C6.32552 16.1555 5.84328 16.2301 5.32955 16.2301C4.46117 16.2301 3.68892 16.018 3.01278 15.5938C2.33665 15.1695 1.80469 14.5663 1.4169 13.7841C1.02912 13.0019 0.835227 12.0739 0.835227 11C0.835227 9.92614 1.02912 8.99811 1.4169 8.21591C1.80469 7.43371 2.33665 6.83049 3.01278 6.40625C3.68892 5.98201 4.46117 5.76989 5.32955 5.76989C5.84328 5.76989 6.32552 5.84446 6.77628 5.99361C7.23035 6.14276 7.63968 6.36151 8.00426 6.64986C8.36885 6.9349 8.67377 7.28291 8.91903 7.69389C9.1643 8.10156 9.33333 8.56724 9.42614 9.09091ZM13.8617 16.25C13.1723 16.25 12.5674 16.0859 12.0471 15.7578C11.53 15.4297 11.1257 14.9706 10.834 14.3807C10.5456 13.7907 10.4015 13.1013 10.4015 12.3125C10.4015 11.517 10.5456 10.8227 10.834 10.2294C11.1257 9.63613 11.53 9.17543 12.0471 8.8473C12.5674 8.51918 13.1723 8.35511 13.8617 8.35511C14.5511 8.35511 15.1543 8.51918 15.6713 8.8473C16.1917 9.17543 16.5961 9.63613 16.8844 10.2294C17.1761 10.8227 17.3219 11.517 17.3219 12.3125C17.3219 13.1013 17.1761 13.7907 16.8844 14.3807C16.5961 14.9706 16.1917 15.4297 15.6713 15.7578C15.1543 16.0859 14.5511 16.25 13.8617 16.25ZM13.8617 15.196C14.3854 15.196 14.8162 15.0618 15.1543 14.7933C15.4924 14.5249 15.7426 14.1719 15.905 13.7344C16.0674 13.2969 16.1486 12.8229 16.1486 12.3125C16.1486 11.8021 16.0674 11.3265 15.905 10.8857C15.7426 10.4448 15.4924 10.0885 15.1543 9.81676C14.8162 9.54498 14.3854 9.40909 13.8617 9.40909C13.338 9.40909 12.9071 9.54498 12.5691 9.81676C12.231 10.0885 11.9808 10.4448 11.8184 10.8857C11.656 11.3265 11.5748 11.8021 11.5748 12.3125C11.5748 12.8229 11.656 13.2969 11.8184 13.7344C11.9808 14.1719 12.231 14.5249 12.5691 14.7933C12.9071 15.0618 13.338 15.196 13.8617 15.196ZM18.6129 16.0909L18.6129 8.45455L19.7464 8.45455L19.7464 9.64773L19.8459 9.64773C20.005 9.24006 20.2618 8.92353 20.6165 8.69815C20.9711 8.46946 21.397 8.35511 21.8942 8.35511C22.398 8.35511 22.8172 8.46946 23.152 8.69815C23.4901 8.92353 23.7536 9.24006 23.9425 9.64773L24.022 9.64773C24.2176 9.25331 24.5109 8.9401 24.902 8.7081C25.2931 8.47278 25.7621 8.35511 26.3089 8.35511C26.9917 8.35511 27.5502 8.56889 27.9844 8.99645C28.4186 9.42069 28.6357 10.0819 28.6357 10.9801L28.6357 16.0909L27.4624 16.0909L27.4624 10.9801C27.4624 10.4167 27.3082 10.014 27 9.77202C26.6918 9.53007 26.3288 9.40909 25.9112 9.40909C25.3743 9.40909 24.9583 9.5715 24.6634 9.89631C24.3684 10.2178 24.2209 10.6255 24.2209 11.1193L24.2209 16.0909L23.0277 16.0909L23.0277 10.8608C23.0277 10.4266 22.8868 10.0769 22.6051 9.81179C22.3234 9.54332 21.9605 9.40909 21.5163 9.40909C21.2114 9.40909 20.9264 9.49029 20.6612 9.6527C20.3994 9.81511 20.1873 10.0405 20.0249 10.3288C19.8658 10.6139 19.7862 10.9437 19.7862 11.3182L19.7862 16.0909L18.6129 16.0909ZM30.2809 18.9545L30.2809 8.45455L31.4144 8.45455L31.4144 9.66761L31.5536 9.66761C31.6398 9.53504 31.7591 9.366 31.9116 9.16051C32.0674 8.95171 32.2894 8.7661 32.5778 8.60369C32.8694 8.43797 33.2639 8.35511 33.761 8.35511C34.404 8.35511 34.9708 8.51586 35.4613 8.83736C35.9518 9.15886 36.3346 9.61458 36.6097 10.2045C36.8848 10.7945 37.0224 11.4905 37.0224 12.2926C37.0224 13.1013 36.8848 13.8023 36.6097 14.3956C36.3346 14.9856 35.9535 15.4429 35.4663 15.7678C34.979 16.0893 34.4173 16.25 33.7809 16.25C33.2904 16.25 32.8976 16.1688 32.6026 16.0064C32.3076 15.8407 32.0806 15.6534 31.9215 15.4446C31.7624 15.2325 31.6398 15.0568 31.5536 14.9176L31.4542 14.9176L31.4542 18.9545L30.2809 18.9545ZM31.4343 12.2727C31.4343 12.8494 31.5188 13.3582 31.6879 13.799C31.8569 14.2365 32.1038 14.5795 32.4286 14.8281C32.7534 15.0734 33.1512 15.196 33.6218 15.196C34.1123 15.196 34.5217 15.0668 34.8498 14.8082C35.1812 14.5464 35.4298 14.1951 35.5955 13.7543C35.7646 13.3101 35.8491 12.8163 35.8491 12.2727C35.8491 11.7358 35.7662 11.2519 35.6005 10.821C35.4381 10.3868 35.1912 10.0438 34.8597 9.7919C34.5316 9.5367 34.119 9.40909 33.6218 9.40909C33.1445 9.40909 32.7435 9.53007 32.4187 9.77202C32.0939 10.0107 31.8486 10.3454 31.6829 10.7763C31.5172 11.2038 31.4343 11.7027 31.4343 12.2727ZM41.5139 16.25C40.7781 16.25 40.1433 16.0876 39.6097 15.7628C39.0794 15.4347 38.6701 14.9773 38.3817 14.3906C38.0967 13.8007 37.9542 13.1146 37.9542 12.3324C37.9542 11.5502 38.0967 10.8608 38.3817 10.2642C38.6701 9.6643 39.0711 9.19697 39.5849 8.86222C40.1019 8.52415 40.7051 8.35511 41.3945 8.35511C41.7923 8.35511 42.185 8.4214 42.5728 8.55398C42.9606 8.68655 43.3136 8.90199 43.6317 9.20028C43.9499 9.49527 44.2035 9.88636 44.3924 10.3736C44.5813 10.8608 44.6758 11.4607 44.6758 12.1733L44.6758 12.6705L38.7894 12.6705L38.7894 11.6563L43.4826 11.6563C43.4826 11.2254 43.3964 10.8409 43.2241 10.5028C43.055 10.1648 42.8131 9.89796 42.4982 9.70242C42.1867 9.50687 41.8188 9.40909 41.3945 9.40909C40.9272 9.40909 40.5228 9.52509 40.1815 9.7571C39.8434 9.9858 39.5832 10.2841 39.4009 10.652C39.2186 11.0199 39.1275 11.4143 39.1275 11.8352L39.1275 12.5114C39.1275 13.0881 39.2269 13.5769 39.4258 13.978C39.628 14.3757 39.908 14.679 40.266 14.8878C40.6239 15.0933 41.0399 15.196 41.5139 15.196C41.8221 15.196 42.1005 15.1529 42.3491 15.0668C42.601 14.9773 42.8181 14.8447 43.0004 14.669C43.1826 14.4901 43.3235 14.268 43.4229 14.0028L44.5565 14.321C44.4371 14.7055 44.2366 15.0436 43.9549 15.3352C43.6732 15.6236 43.3252 15.849 42.9109 16.0114C42.4966 16.1705 42.0309 16.25 41.5139 16.25ZM49.2816 8.45455L49.2816 9.44886L45.3242 9.44886L45.3242 8.45455L49.2816 8.45455ZM46.4776 6.625L47.6509 6.625L47.6509 13.9034C47.6509 14.2348 47.699 14.4834 47.7951 14.6491C47.8945 14.8116 48.0205 14.9209 48.1729 14.9773C48.3287 15.0303 48.4928 15.0568 48.6651 15.0568C48.7944 15.0568 48.9005 15.0502 48.9833 15.0369C49.0662 15.0204 49.1325 15.0071 49.1822 14.9972L49.4208 16.0511C49.3413 16.081 49.2302 16.1108 49.0877 16.1406C48.9452 16.1738 48.7646 16.1903 48.5458 16.1903C48.2144 16.1903 47.8896 16.1191 47.5714 15.9766C47.2565 15.834 46.9947 15.617 46.7859 15.3253C46.5804 15.0336 46.4776 14.6657 46.4776 14.2216L46.4776 6.625ZM50.5465 16.0909L50.5465 8.45455L51.7198 8.45455L51.7198 16.0909L50.5465 16.0909ZM51.1431 7.18182C50.9144 7.18182 50.7172 7.10393 50.5515 6.94815C50.3891 6.79238 50.3079 6.60511 50.3079 6.38636C50.3079 6.16761 50.3891 5.98035 50.5515 5.82457C50.7172 5.6688 50.9144 5.59091 51.1431 5.59091C51.3718 5.59091 51.5674 5.6688 51.7298 5.82457C51.8955 5.98035 51.9783 6.16761 51.9783 6.38636C51.9783 6.60511 51.8955 6.79238 51.7298 6.94815C51.5674 7.10393 51.3718 7.18182 51.1431 7.18182ZM56.6898 8.45455L56.6898 9.44886L52.7324 9.44886L52.7324 8.45455L56.6898 8.45455ZM53.8858 6.625L55.0591 6.625L55.0591 13.9034C55.0591 14.2348 55.1072 14.4834 55.2033 14.6491C55.3027 14.8116 55.4287 14.9209 55.5811 14.9773C55.7369 15.0303 55.901 15.0568 56.0733 15.0568C56.2026 15.0568 56.3087 15.0502 56.3915 15.0369C56.4744 15.0204 56.5407 15.0071 56.5904 14.9972L56.829 16.0511C56.7495 16.081 56.6384 16.1108 56.4959 16.1406C56.3534 16.1738 56.1728 16.1903 55.954 16.1903C55.6226 16.1903 55.2978 16.1191 54.9796 15.9766C54.6647 15.834 54.4029 15.617 54.1941 15.3253C53.9886 15.0336 53.8858 14.6657 53.8858 14.2216L53.8858 6.625ZM60.975 16.25C60.2856 16.25 59.6807 16.0859 59.1603 15.7578C58.6433 15.4297 58.2389 14.9706 57.9473 14.3807C57.6589 13.7907 57.5147 13.1013 57.5147 12.3125C57.5147 11.517 57.6589 10.8227 57.9473 10.2294C58.2389 9.63613 58.6433 9.17543 59.1603 8.8473C59.6807 8.51918 60.2856 8.35511 60.975 8.35511C61.6644 8.35511 62.2676 8.51918 62.7846 8.8473C63.305 9.17543 63.7093 9.63613 63.9977 10.2294C64.2894 10.8227 64.4352 11.517 64.4352 12.3125C64.4352 13.1013 64.2894 13.7907 63.9977 14.3807C63.7093 14.9706 63.305 15.4297 62.7846 15.7578C62.2676 16.0859 61.6644 16.25 60.975 16.25ZM60.975 15.196C61.4986 15.196 61.9295 15.0618 62.2676 14.7933C62.6056 14.5249 62.8559 14.1719 63.0183 13.7344C63.1807 13.2969 63.2619 12.8229 63.2619 12.3125C63.2619 11.8021 63.1807 11.3265 63.0183 10.8857C62.8559 10.4448 62.6056 10.0885 62.2676 9.81676C61.9295 9.54498 61.4986 9.40909 60.975 9.40909C60.4513 9.40909 60.0204 9.54498 59.6824 9.81676C59.3443 10.0885 59.094 10.4448 58.9316 10.8857C58.7692 11.3265 58.688 11.8021 58.688 12.3125C58.688 12.8229 58.7692 13.2969 58.9316 13.7344C59.094 14.1719 59.3443 14.5249 59.6824 14.7933C60.0204 15.0618 60.4513 15.196 60.975 15.196ZM65.7262 16.0909L65.7262 8.45455L66.8597 8.45455L66.8597 9.60796L66.9393 9.60796C67.0785 9.23011 67.3304 8.92353 67.695 8.68821C68.0595 8.45289 68.4705 8.33523 68.9279 8.33523C69.0141 8.33523 69.1218 8.33689 69.2511 8.3402C69.3803 8.34351 69.4781 8.34849 69.5444 8.35511L69.5444 9.5483C69.5046 9.53835 69.4135 9.52344 69.271 9.50355C69.1317 9.48035 68.9843 9.46875 68.8285 9.46875C68.4573 9.46875 68.1258 9.54664 67.8342 9.70242C67.5458 9.85488 67.3171 10.067 67.1481 10.3388C66.9824 10.6072 66.8995 10.9138 66.8995 11.2585L66.8995 16.0909L65.7262 16.0909Z" fill="rgb(29.2852,29.9259,37.1875)" fill-rule="nonzero" transform="matrix(1,0.000276082,-0.000276082,1,190.999,9.05273)" />
	</g>
	<g id="1">
		<rect id="Shape" width="12.200000" height="10.000000" x="0.000000" y="0.000000" rx="2.000000" fill="rgb(34,128.418,255)" transform="matrix(1,0.000276082,-0.000276082,1,0.677734,15.0002)" />
		<rect id="Shape" width="12.200000" height="10.000000" x="0.000000" y="0.000000" rx="2.000000" stroke="rgb(150.96,150.96,150.96)" stroke-opacity="0" stroke-width="0" transform="matrix(1,0.000276082,-0.000276082,1,0.677734,15.0002)" />
		<path id="Marketing Sales" d="M1.23295 5.90909L2.70455 5.90909L6.16477 14.3608L6.28409 14.3608L9.74432 5.90909L11.2159 5.90909L11.2159 16.0909L10.0625 16.0909L10.0625 8.35511L9.96307 8.35511L6.78125 16.0909L5.66761 16.0909L2.4858 8.35511L2.38636 8.35511L2.38636 16.0909L1.23295 16.0909L1.23295 5.90909ZM13.7846 18.9545C13.5858 18.9545 13.4084 18.938 13.2527 18.9048C13.0969 18.875 12.9892 18.8452 12.9295 18.8153L13.2278 17.7812C13.5128 17.8542 13.7647 17.8807 13.9835 17.8608C14.2022 17.8409 14.3961 17.7431 14.5652 17.5675C14.7375 17.3951 14.8949 17.1151 15.0375 16.7273L15.2562 16.1307L12.4324 8.45455L13.7051 8.45455L15.813 14.5398L15.8926 14.5398L18.0005 8.45455L19.2733 8.45455L16.0318 17.2045C15.886 17.599 15.7053 17.9254 15.4899 18.184C15.2744 18.4458 15.0242 18.6397 14.7392 18.7656C14.4574 18.8916 14.1393 18.9545 13.7846 18.9545ZM23.7594 18.9545L23.7594 8.45455L24.8929 8.45455L24.8929 9.66761L25.0321 9.66761C25.1183 9.53504 25.2376 9.366 25.3901 9.16051C25.5459 8.95171 25.7679 8.7661 26.0563 8.60369C26.348 8.43797 26.7424 8.35511 27.2395 8.35511C27.8825 8.35511 28.4493 8.51586 28.9398 8.83736C29.4303 9.15886 29.8132 9.61458 30.0882 10.2045C30.3633 10.7945 30.5009 11.4905 30.5009 12.2926C30.5009 13.1013 30.3633 13.8023 30.0882 14.3956C29.8132 14.9856 29.432 15.4429 28.9448 15.7678C28.4576 16.0893 27.8958 16.25 27.2594 16.25C26.7689 16.25 26.3761 16.1688 26.0811 16.0064C25.7862 15.8407 25.5591 15.6534 25.4 15.4446C25.2409 15.2325 25.1183 15.0568 25.0321 14.9176L24.9327 14.9176L24.9327 18.9545L23.7594 18.9545ZM24.9128 12.2727C24.9128 12.8494 24.9973 13.3582 25.1664 13.799C25.3354 14.2365 25.5823 14.5795 25.9071 14.8281C26.2319 15.0734 26.6297 15.196 27.1003 15.196C27.5909 15.196 28.0002 15.0668 28.3283 14.8082C28.6597 14.5464 28.9083 14.1951 29.074 13.7543C29.2431 13.3101 29.3276 12.8163 29.3276 12.2727C29.3276 11.7358 29.2447 11.2519 29.079 10.821C28.9166 10.3868 28.6697 10.0438 28.3382 9.7919C28.0101 9.5367 27.5975 9.40909 27.1003 9.40909C26.623 9.40909 26.222 9.53007 25.8972 9.77202C25.5724 10.0107 25.3271 10.3454 25.1614 10.7763C24.9957 11.2038 24.9128 11.7027 24.9128 12.2727ZM31.7907 16.0909L31.7907 8.45455L32.9242 8.45455L32.9242 9.60796L33.0037 9.60796C33.1429 9.23011 33.3948 8.92353 33.7594 8.68821C34.124 8.45289 34.535 8.33523 34.9924 8.33523C35.0785 8.33523 35.1863 8.33689 35.3155 8.3402C35.4448 8.34351 35.5426 8.34849 35.6088 8.35511L35.6088 9.5483C35.5691 9.53835 35.4779 9.52344 35.3354 9.50355C35.1962 9.48035 35.0487 9.46875 34.8929 9.46875C34.5217 9.46875 34.1903 9.54664 33.8986 9.70242C33.6103 9.85488 33.3816 10.067 33.2125 10.3388C33.0468 10.6072 32.964 10.9138 32.964 11.2585L32.964 16.0909L31.7907 16.0909ZM39.3695 16.25C38.6801 16.25 38.0752 16.0859 37.5549 15.7578C37.0378 15.4297 36.6335 14.9706 36.3418 14.3807C36.0534 13.7907 35.9093 13.1013 35.9093 12.3125C35.9093 11.517 36.0534 10.8227 36.3418 10.2294C36.6335 9.63613 37.0378 9.17543 37.5549 8.8473C38.0752 8.51918 38.6801 8.35511 39.3695 8.35511C40.0589 8.35511 40.6621 8.51918 41.1792 8.8473C41.6995 9.17543 42.1039 9.63613 42.3922 10.2294C42.6839 10.8227 42.8297 11.517 42.8297 12.3125C42.8297 13.1013 42.6839 13.7907 42.3922 14.3807C42.1039 14.9706 41.6995 15.4297 41.1792 15.7578C40.6621 16.0859 40.0589 16.25 39.3695 16.25ZM39.3695 15.196C39.8932 15.196 40.324 15.0618 40.6621 14.7933C41.0002 14.5249 41.2504 14.1719 41.4128 13.7344C41.5752 13.2969 41.6564 12.8229 41.6564 12.3125C41.6564 11.8021 41.5752 11.3265 41.4128 10.8857C41.2504 10.4448 41.0002 10.0885 40.6621 9.81676C40.324 9.54498 39.8932 9.40909 39.3695 9.40909C38.8458 9.40909 38.415 9.54498 38.0769 9.81676C37.7388 10.0885 37.4886 10.4448 37.3262 10.8857C37.1638 11.3265 37.0826 11.8021 37.0826 12.3125C37.0826 12.8229 37.1638 13.2969 37.3262 13.7344C37.4886 14.1719 37.7388 14.5249 38.0769 14.7933C38.415 15.0618 38.8458 15.196 39.3695 15.196ZM47.0043 16.25C46.3679 16.25 45.8061 16.0893 45.3189 15.7678C44.8317 15.4429 44.4505 14.9856 44.1754 14.3956C43.9003 13.8023 43.7628 13.1013 43.7628 12.2926C43.7628 11.4905 43.9003 10.7945 44.1754 10.2045C44.4505 9.61458 44.8333 9.15886 45.3239 8.83736C45.8144 8.51586 46.3812 8.35511 47.0241 8.35511C47.5213 8.35511 47.9141 8.43797 48.2024 8.60369C48.4941 8.7661 48.7161 8.95171 48.8686 9.16051C49.0244 9.366 49.1454 9.53504 49.2315 9.66761L49.331 9.66761L49.331 5.90909L50.5043 5.90909L50.5043 16.0909L49.3707 16.0909L49.3707 14.9176L49.2315 14.9176C49.1454 15.0568 49.0227 15.2325 48.8636 15.4446C48.7045 15.6534 48.4775 15.8407 48.1825 16.0064C47.8875 16.1688 47.4948 16.25 47.0043 16.25ZM47.1634 15.196C47.634 15.196 48.0317 15.0734 48.3565 14.8281C48.6813 14.5795 48.9283 14.2365 49.0973 13.799C49.2663 13.3582 49.3509 12.8494 49.3509 12.2727C49.3509 11.7027 49.268 11.2038 49.1023 10.7763C48.9366 10.3454 48.6913 10.0107 48.3665 9.77202C48.0417 9.53007 47.6406 9.40909 47.1634 9.40909C46.6662 9.40909 46.2519 9.5367 45.9205 9.7919C45.5923 10.0438 45.3454 10.3868 45.1797 10.821C45.0173 11.2519 44.9361 11.7358 44.9361 12.2727C44.9361 12.8163 45.0189 13.3101 45.1847 13.7543C45.3537 14.1951 45.6023 14.5464 45.9304 14.8082C46.2618 15.0668 46.6728 15.196 47.1634 15.196ZM57.1286 12.9688L57.1286 8.45455L58.3018 8.45455L58.3018 16.0909L57.1286 16.0909L57.1286 14.7983L57.049 14.7983C56.87 15.1861 56.5916 15.5159 56.2138 15.7876C55.8359 16.0561 55.3587 16.1903 54.782 16.1903C54.3047 16.1903 53.8804 16.0859 53.5092 15.8771C53.138 15.665 52.8464 15.3468 52.6342 14.9226C52.4221 14.495 52.3161 13.9564 52.3161 13.3068L52.3161 8.45455L53.4893 8.45455L53.4893 13.2273C53.4893 13.7841 53.6451 14.2282 53.9567 14.5597C54.2715 14.8911 54.6726 15.0568 55.1598 15.0568C55.4515 15.0568 55.7481 14.9822 56.0497 14.8331C56.3546 14.6839 56.6098 14.4553 56.8153 14.147C57.0241 13.8388 57.1286 13.446 57.1286 12.9688ZM63.0531 16.25C62.3372 16.25 61.7207 16.081 61.2037 15.7429C60.6866 15.4048 60.2889 14.9392 60.0105 14.3459C59.7321 13.7526 59.5929 13.0748 59.5929 12.3125C59.5929 11.5369 59.7354 10.8525 60.0204 10.2592C60.3088 9.66264 60.7098 9.19697 61.2235 8.86222C61.7406 8.52415 62.3438 8.35511 63.0332 8.35511C63.5701 8.35511 64.054 8.45455 64.4849 8.65341C64.9158 8.85227 65.2688 9.13068 65.5439 9.48864C65.819 9.84659 65.9896 10.2642 66.0559 10.7415L64.8826 10.7415C64.7931 10.3935 64.5943 10.0852 64.286 9.81676C63.9811 9.54498 63.5701 9.40909 63.0531 9.40909C62.5957 9.40909 62.1947 9.52841 61.85 9.76705C61.5086 10.0024 61.2418 10.3355 61.0495 10.7663C60.8606 11.1939 60.7662 11.696 60.7662 12.2727C60.7662 12.8627 60.859 13.3764 61.0446 13.8139C61.2335 14.2514 61.4986 14.5911 61.84 14.8331C62.1847 15.075 62.5891 15.196 63.0531 15.196C63.358 15.196 63.6348 15.143 63.8833 15.0369C64.1319 14.9309 64.3424 14.7784 64.5147 14.5795C64.6871 14.3807 64.8097 14.142 64.8826 13.8636L66.0559 13.8636C65.9896 14.3144 65.8256 14.7204 65.5637 15.0817C65.3052 15.4396 64.9622 15.7247 64.5346 15.9368C64.1104 16.1456 63.6165 16.25 63.0531 16.25ZM70.5922 8.45455L70.5922 9.44886L66.6348 9.44886L66.6348 8.45455L70.5922 8.45455ZM67.7882 6.625L68.9615 6.625L68.9615 13.9034C68.9615 14.2348 69.0095 14.4834 69.1056 14.6491C69.2051 14.8116 69.331 14.9209 69.4835 14.9773C69.6393 15.0303 69.8033 15.0568 69.9757 15.0568C70.1049 15.0568 70.211 15.0502 70.2939 15.0369C70.3767 15.0204 70.443 15.0071 70.4927 14.9972L70.7314 16.0511C70.6518 16.081 70.5408 16.1108 70.3983 16.1406C70.2557 16.1738 70.0751 16.1903 69.8564 16.1903C69.5249 16.1903 69.2001 16.1191 68.8819 15.9766C68.5671 15.834 68.3052 15.617 68.0964 15.3253C67.8909 15.0336 67.7882 14.6657 67.7882 14.2216L67.7882 6.625Z" fill="rgb(29.2852,29.9259,37.1875)" fill-rule="nonzero" transform="matrix(1,0.000276082,-0.000276082,1,22.6394,9.00635)" />
	</g>
</svg>
